<?xml version="1.0" encoding="UTF-8" standalone="no"?>
<svg width="20px" height="20px" viewBox="0 0 20 20" version="1.1" xmlns="http://www.w3.org/2000/svg" xmlns:xlink="http://www.w3.org/1999/xlink">
    <!-- Generator: Sketch 3.7 (28169) - http://www.bohemiancoding.com/sketch -->
    <title>iconLink20</title>
    <desc>Created with Sketch.</desc>
    <defs></defs>
    <g id="Assets" stroke="none" stroke-width="1" fill="none" fill-rule="evenodd">
        <g id="iconLink20" fill="#AAB1B5">
            <g id="icon-link" transform="translate(-2.000000, -2.000000)">
                <path d="M10.0018944,8 L6.99582624,8 C4.79652125,8 3,9.790861 3,12 C3,14.2046438 4.78899235,16 6.99582624,16 L11.0041738,16 C13.2034788,16 15,14.209139 15,12 C15,11.6548633 14.9561556,11.3197573 14.8737275,11 L13.0003297,11 C12.9140082,11 12.8301242,11.0111063 12.7500416,11.0319608 C12.9092442,11.3189982 13,11.649122 13,12 C13,13.101855 12.1016244,14 11.0041738,14 L6.99582624,14 C5.89592715,14 5,13.1024408 5,12 C5,10.898145 5.89837558,10 6.99582624,10 L8.41690916,10 C8.76535811,9.20385472 9.31530346,8.51567978 10.0018944,8 Z" id="Combined-Shape"></path>
                <path d="M13.9981056,16 L17.0041738,16 C19.2034788,16 21,14.209139 21,12 C21,9.79535615 19.2110077,8 17.0041738,8 L12.9958262,8 C10.7965212,8 9,9.790861 9,12 C9,12.3451367 9.04384439,12.6802427 9.12627246,13 L10.9996703,13 C11.0859918,13 11.1698758,12.9888937 11.2499584,12.9680392 C11.0907558,12.6810018 11,12.350878 11,12 C11,10.898145 11.8983756,10 12.9958262,10 L17.0041738,10 C18.1040728,10 19,10.8975592 19,12 C19,13.101855 18.1016244,14 17.0041738,14 L15.5830908,14 C15.2346419,14.7961453 14.6846965,15.4843202 13.9981056,16 Z" id="Combined-Shape"></path>
            </g>
        </g>
    </g>
</svg>