<svg xmlns="http://www.w3.org/2000/svg" width="24" height="24" viewBox="0 0 24 24">
  <g fill="none" fill-rule="evenodd">
    <circle cx="12" cy="12" r="12" fill="#BE8BDB"/>
    <g fill="#FFFFFF" transform="translate(4 3)">
      <path d="M2,13.9941413 C2,14.0012361 14.0092049,14 14.0092049,14 C13.9972918,14 14,8.00585866 14,8.00585866 C14,7.99876385 1.99079514,8 1.99079514,8 C2.00270816,8 2,13.9941413 2,13.9941413 Z M1.99079514,6 L14.0092049,6 C15.1086907,6 16,6.89706013 16,8.00585866 L16,13.9941413 C16,15.1019465 15.1017876,16 14.0092049,16 L1.99079514,16 C0.891309342,16 0,15.1029399 0,13.9941413 L0,8.00585866 C0,6.89805351 0.898212381,6 1.99079514,6 Z"/>
      <rect width="10" height="2" x="3" y="3" rx="1"/>
      <rect width="4" height="2" x="6" rx="1"/>
    </g>
  </g>
</svg>
