<svg xmlns="http://www.w3.org/2000/svg" width="20" height="20" viewBox="0 0 20 20">
  <path fill="#AAB1B5" fill-rule="evenodd" d="M1,1 L15,1 C15.5522847,1 16,1.44771525 16,2 L16,14 C16,14.5522847 15.5522847,15 15,15 L1,15 C0.44771525,15 6.76353751e-17,14.5522847 0,14 L0,2 C-6.76353751e-17,1.44771525 0.44771525,1 1,1 Z M2,3 L2,13 L14,13 L14,3 L2,3 Z M7.83205029,7.24807544 L9.9635332,10.4452998 C10.2698857,10.9048285 10.1457118,11.5256978 9.6861831,11.8320503 C9.52191559,11.941562 9.32890789,12 9.13148291,12 L4.86851709,12 C4.31623234,12 3.86851709,11.5522847 3.86851709,11 C3.86851709,10.802575 3.92695512,10.6095673 4.0364668,10.4452998 L6.16794971,7.24807544 C6.47430216,6.78854675 7.09517151,6.66437288 7.5547002,6.97072534 C7.66455248,7.0439602 7.75881544,7.13822315 7.83205029,7.24807544 Z M11,6 C10.4477153,6 10,5.55228475 10,5 C10,4.44771525 10.4477153,4 11,4 C11.5522847,4 12,4.44771525 12,5 C12,5.55228475 11.5522847,6 11,6 Z" transform="translate(2 2)"/>
</svg>
