<?xml version="1.0" encoding="UTF-8" standalone="no"?>
<svg width="20px" height="20px" viewBox="0 0 20 20" version="1.1" xmlns="http://www.w3.org/2000/svg" xmlns:xlink="http://www.w3.org/1999/xlink">
    <!-- Generator: Sketch 3.8.3 (29802) - http://www.bohemiancoding.com/sketch -->
    <title>iconComments20Orange</title>
    <desc>Created with Sketch.</desc>
    <defs></defs>
    <g id="Assets" stroke="none" stroke-width="1" fill="none" fill-rule="evenodd">
        <g id="iconComments20Orange" fill="#FCA567">
            <path d="M2,8.89795918 L2,8.89795918 C2,10.4473826 2.81900166,11.9302261 4.3259647,13.0492497 C4.48408963,13.1666683 4.59498599,13.2448919 4.6624239,13.2891856 C4.66155333,13.2886138 4.629931,13.2699345 4.56261374,13.2365814 C5.52589189,13.7138479 5.93956695,14.8672233 5.49921018,15.847924 C5.44942401,15.9588008 5.37729453,16.1144678 5.29746892,16.2767059 C5.27980026,16.3125065 5.27980026,16.3125065 5.26148109,16.3491218 C5.21948223,16.4327488 5.17932732,16.5095506 5.13965197,16.5810748 C5.09090284,16.6689567 5.01496646,16.7993001 4.90998206,16.9768246 C4.90743788,16.9811264 4.90743788,16.9811264 4.90489507,16.9854248 C4.81817476,17.1320092 4.72659832,17.2855322 4.68110264,17.3611806 L2.94883939,16.3615487 L4.74216393,17.2469791 C4.70745718,17.3172731 4.73049646,17.2366853 4.73460296,17.1496411 C4.73453654,17.1510488 4.734375,17.1650013 4.734375,17.2150612 C4.734375,17.1061672 4.63010354,17 4.43049239,17.000609 C4.42244574,17.0008076 4.44828924,16.9992798 4.48225303,16.9967948 C4.49957058,16.9955126 4.49957058,16.9955126 4.51739739,16.9941393 C4.61246485,16.9863971 4.61246485,16.9863971 4.63834205,16.9840695 L4.81738226,18.9760395 L4.49162729,17.0027469 C5.35604389,16.8600473 6.47460794,16.2113643 7.32454077,15.3767179 C7.42414014,15.2789098 7.53370582,15.1917981 7.65144616,15.116807 L7.75083999,15.0535013 C8.1126339,14.8230679 8.53892785,14.7150581 8.96679796,14.7454147 C9.05595787,14.7517404 9.20604861,14.7615681 9.37882486,14.7713698 C9.49623626,14.7778837 9.54117926,14.7802435 9.61630939,14.7837912 C9.78292403,14.791659 9.91833523,14.7959184 10,14.7959184 C14.5112705,14.7959184 18,12.0777641 18,8.89795918 C18,5.71796553 14.511561,3 10,3 C5.48814844,3 2,5.71777678 2,8.89795918 L2,8.89795918 Z M2.77152537,16.8131255 C2.77665827,16.815727 2.78174487,16.8182763 2.78678709,16.8207745 L3.35455378,15.6748375 C3.3685565,15.6504058 3.38079275,15.6287974 3.39071153,15.6109164 C3.50906889,15.3975492 3.67470042,15.028678 3.67470042,15.028678 C3.67470042,15.028678 3.56108994,14.9723884 3.1336152,14.6549591 C1.17866465,13.203274 0,11.1526751 0,8.89795918 C0,4.43532884 4.54578289,1 10,1 C15.4538523,1 20,4.43545619 20,8.89795918 C20,13.3603348 15.4534876,16.7959184 10,16.7959184 C9.60777857,16.7959184 8.82525743,16.7403999 8.82525743,16.7403999 L8.7258636,16.8037057 C7.72123452,17.7902661 6.2457161,18.7402474 4.81738226,18.9760395 C4.81738226,18.9760395 4.57766613,18.9975854 4.47984375,19 C3.52118684,19 2.734375,18.2066193 2.734375,17.2150612 C2.734375,17.0769261 2.734375,16.9625498 2.77152537,16.8131255 L2.77152537,16.8131255 Z" id="Path"></path>
        </g>
    </g>
</svg>