<svg xmlns="http://www.w3.org/2000/svg" width="20" height="20" viewBox="0 0 20 20">
  <g fill="none" fill-rule="evenodd" transform="translate(2 2)">
    <circle cx="3.5" cy="13.5" r="2.5" fill="#AAB1B5"/>
    <circle cx="12.5" cy="11.5" r="2.5" fill="#AAB1B5"/>
    <path fill="#AAB1B5" d="M5,2 L5,2 C5.55228475,2 6,2.44771525 6,3 L6,13 C6,13.5522847 5.55228475,14 5,14 L4,14 L4,3 C4,2.44771525 4.44771525,2 5,2 Z"/>
    <path stroke="#AAB1B5" stroke-linecap="round" stroke-width="2" d="M5,3 L14,1"/>
    <path fill="#AAB1B5" d="M14,0 L14,0 C14.5522847,-1.01453063e-16 15,0.44771525 15,1 L15,11 C15,11.5522847 14.5522847,12 14,12 L13,12 L13,1 C13,0.44771525 13.4477153,1.01453063e-16 14,0 Z"/>
  </g>
</svg>
