<?xml version="1.0" encoding="UTF-8" standalone="no"?>
<svg width="12px" height="12px" viewBox="0 0 12 12" version="1.1" xmlns="http://www.w3.org/2000/svg" xmlns:xlink="http://www.w3.org/1999/xlink">
    <!-- Generator: Sketch 3.8.3 (29802) - http://www.bohemiancoding.com/sketch -->
    <title>iconComments12</title>
    <desc>Created with Sketch.</desc>
    <defs></defs>
    <g id="Assets" stroke="none" stroke-width="1" fill="none" fill-rule="evenodd">
        <g id="iconComments12" fill="#AAB1B5">
            <path d="M0,5.82653061 C0,7.20484317 0.707640854,8.45833956 1.88126891,9.34552881 C2.13745076,9.53918623 2.1995298,9.58627079 2.1995298,9.58627079 C2.15765357,9.68971957 2.10253396,9.80384059 2.03442692,9.92889337 C1.97478728,10.038399 1.76930363,10.3876131 1.76930363,10.3876131 L1.727454,10.4745256 C1.67092547,10.6102978 1.640625,10.7577707 1.640625,10.9092041 C1.640625,11.5151562 2.1127121,12 2.68790625,12 C2.74659968,11.9985244 2.89042935,11.9853575 2.89042935,11.9853575 C3.7296529,11.8442513 4.59602488,11.2846148 5.197646,10.6953054 L5.28735485,10.6183817 C5.52451464,10.641359 5.76205876,10.6530612 6,10.6530612 C9.27209254,10.6530612 12,8.55353796 12,5.82653061 C12,3.09944545 9.2723114,1 6,1 C2.72746973,1 0,3.09936763 0,5.82653061 Z" id="Path"></path>
        </g>
    </g>
</svg>