<svg xmlns="http://www.w3.org/2000/svg" width="24" height="24" viewBox="0 0 24 24">
  <path fill="#64C0CD" fill-rule="evenodd" d="M8,17 L8,23.3171772 C9.2511157,23.7593831 10.5974583,24 12,24 C18.627417,24 24,18.627417 24,12 C24,5.372583 18.627417,0 12,0 C5.372583,0 0,5.372583 0,12 C0,16.4416941 2.41319178,20.3197571 6,22.3946137 L6,16 C6.00000748,15.99772 6,15.9954382 6,15.9931545 L6,6.00684547 C6,5.45078007 6.44494629,5 6.99339768,5 L18.0049107,5 C19.1067681,5 19.6440798,5.83048046 19.2117853,6.83916759 L17,11 L19.2117853,15.1608324 C19.6471043,16.1765766 19.1073772,17 18.0049107,17 L8,17 Z M8,7.00684547 L7.99339768,15 L17.0049107,15 L14.8240648,11 L17.0049107,7 L8,7.00684547 Z"/>
</svg>
