<svg xmlns="http://www.w3.org/2000/svg" width="25" height="24" viewBox="0 0 25 24">
  <g fill="none" fill-rule="evenodd" transform="translate(1 1)">
    <circle cx="11" cy="11" r="11" fill="#FFF" stroke="#E45E5E" stroke-width="2"/>
    <path fill="#E45E5E" d="M12,10 L15.9975267,10 C16.5511774,10 17,10.4438648 17,11 C17,11.5522847 16.544239,12 15.9975267,12 L12,12 L12,15.9975267 C12,16.5511774 11.5561352,17 11,17 C10.4477153,17 10,16.544239 10,15.9975267 L10,12 L6.00247329,12 C5.44882258,12 5,11.5561352 5,11 C5,10.4477153 5.45576096,10 6.00247329,10 L10,10 L10,6.00247329 C10,5.44882258 10.4438648,5 11,5 C11.5522847,5 12,5.45576096 12,6.00247329 L12,10 Z" transform="rotate(45 11 11)"/>
  </g>
</svg>
