<?xml version="1.0" encoding="UTF-8" standalone="no"?>
<svg width="20px" height="20px" viewBox="0 0 20 20" version="1.1" xmlns="http://www.w3.org/2000/svg" xmlns:xlink="http://www.w3.org/1999/xlink">
    <!-- Generator: Sketch 3.6.1 (26313) - http://www.bohemiancoding.com/sketch -->
    <title>iconVideo20</title>
    <desc>Created with Sketch.</desc>
    <defs></defs>
    <g id="Assets" stroke="none" stroke-width="1" fill="none" fill-rule="evenodd">
        <g id="iconVideo20" fill="#D5D8DA">
            <g id="icon-video">
                <path d="M2,5.00585866 L2,5.00585866 L2,14.9941413 C2,14.9978741 2.00212665,15 2.00585866,15 L11.9941413,15 C11.9978741,15 12,14.9978733 12,14.9941413 L12,5.00585866 C12,5.00212593 11.9978733,5 11.9941413,5 L2.00585866,5 C2.00212593,5 2,5.00212665 2,5.00585866 L2,5.00585866 Z M0,5.00585866 C0,3.89805351 0.897060126,3 2.00585866,3 L11.9941413,3 C13.1019465,3 14,3.89706013 14,5.00585866 L14,14.9941413 C14,16.1019465 13.1029399,17 11.9941413,17 L2.00585866,17 C0.898053512,17 0,16.1029399 0,14.9941413 L0,5.00585866 L0,5.00585866 Z" id="Rectangle-107"></path>
                <path d="M12.7022469,8.87265836 L12.7022469,8.87265836 L14,7 L14,13 L12.7022469,11.1273416 L18.8266023,13.4239749 C18.5526282,13.3212347 18,13.7055043 18,13.9914698 L18,6.0085302 C18,6.29476148 18.5516103,6.67914706 18.8266023,6.57602507 L12.7022469,8.87265836 Z M12,7 L18.1243554,4.70336671 C19.1602453,4.314908 20,4.90195036 20,6.0085302 L20,13.9914698 C20,15.1007504 19.1589803,15.6846176 18.1243554,15.2966333 L12,13 L12,7 L12,7 Z" id="Rectangle-107"></path>
            </g>
        </g>
    </g>
</svg>