<svg xmlns="http://www.w3.org/2000/svg" width="20" height="20" viewBox="0 0 20 20">
  <path fill="#AAB1B5" fill-rule="evenodd" d="M15,8.00031856 L15,12.0062606 C15,14.7614944 12.7574168,17 10,17 C7.24253312,17 5,14.7568912 5,12.0062606 L5,5.99373937 C5,5.44145462 4.55228475,4.99373937 4,4.99373937 C3.44771525,4.99373937 3,5.44145462 3,5.99373937 L3,12.0062606 C3,15.8613458 6.13784869,19 10,19 C13.8611723,19 17,15.8668795 17,12.0062606 L17,8.00031856 L17,3.99310226 C17,1.23479417 14.7611739,-1 12,-1 C9.24207819,-1 7,1.23647581 7,3.99310226 L7,8.00325636 L7,12.000385 C7,13.662799 8.34108339,15 10,15 C11.6624493,15 13,13.6591405 13,12.000385 L13,5.99961498 C13,5.44733023 12.5522847,4.99961498 12,4.99961498 C11.4477153,4.99961498 11,5.44733023 11,5.99961498 L11,12.000385 C11,12.5556757 10.5567721,13 10,13 C9.44435697,13 9,12.5569294 9,12.000385 L9,8.00325636 L9,3.99310226 C9,2.34216698 10.3455291,1 12,1 C13.6574106,1 15,2.3401715 15,3.99310226 L15,8.00031856 Z" transform="rotate(45 10 9)"/>
</svg>
