<svg xmlns="http://www.w3.org/2000/svg" width="20" height="20" viewBox="0 0 20 20">
  <path fill="#AAB1B5" fill-rule="evenodd" d="M2,0 L14,0 C14.5522847,-1.01453063e-16 15,0.44771525 15,1 L15,15 C15,15.5522847 14.5522847,16 14,16 L2,16 C1.44771525,16 1,15.5522847 1,15 L1,1 C1,0.44771525 1.44771525,1.01453063e-16 2,0 Z M3,2 L3,14 L13,14 L13,2 L3,2 Z M6,2 L8,2 L8,4 L6,4 L6,2 Z M8,4 L10,4 L10,6 L8,6 L8,4 Z M6,6 L8,6 L8,8 L6,8 L6,6 Z M8,8 L10,8 L10,10 L8,10 L8,8 Z" transform="translate(2 2)"/>
</svg>
