<svg xmlns="http://www.w3.org/2000/svg" width="20" height="20" viewBox="0 0 20 20">
  <g fill="#D5D8DA" fill-rule="evenodd">
    <path fill-rule="nonzero" d="M0,2.99339768 C0,2.44475929 0.455305576,2 0.99180311,2 L19.0081969,2 C19.5559546,2 20,2.44494629 20,2.99339768 L20,19.0066023 C20,19.5552407 19.5446944,20 19.0081969,20 L0.99180311,20 C0.444045377,20 0,19.5550537 0,19.0066023 L0,2.99339768 Z M2,4 L2,18 L18,18 L18,4 L2,4 Z"/>
    <path d="M5,0.990777969 C5,0.443586406 5.44386482,0 6,0 C6.55228475,0 7,0.45097518 7,0.990777969 L7,5.00922203 C7,5.55641359 6.55613518,6 6,6 C5.44771525,6 5,5.54902482 5,5.00922203 L5,0.990777969 Z M13,0.990777969 C13,0.443586406 13.4438648,0 14,0 C14.5522847,0 15,0.45097518 15,0.990777969 L15,5.00922203 C15,5.55641359 14.5561352,6 14,6 C13.4477153,6 13,5.54902482 13,5.00922203 L13,0.990777969 Z M9.49,15 L4.47,15 L4.47,13.88 C7.2,11.86 8,11.18 8,10.36 C8,9.77 7.47,9.49 6.92,9.49 C6.16,9.49 5.58,9.79 5.13,10.26 L4.32,9.32 C4.97,8.57 5.96,8.23 6.89,8.23 C8.32,8.23 9.44,9.03 9.44,10.36 C9.44,11.5 8.5,12.49 6.77,13.75 L9.49,13.75 L9.49,15 Z M13.06,15.12 C11.9,15.12 11.06,14.74 10.49,14.12 L11.28,13.13 C11.73,13.6 12.35,13.86 13.05,13.86 C13.84,13.86 14.29,13.41 14.29,12.87 C14.29,12.28 13.85,11.88 13.09,11.88 C12.54,11.88 12.09,12.04 11.69,12.42 L10.7,12.15 L10.7,8.33 L15.28,8.33 L15.28,9.58 L12.12,9.58 L12.12,11.21 C12.44,10.89 12.98,10.65 13.59,10.65 C14.72,10.65 15.73,11.46 15.73,12.81 C15.73,14.22 14.67,15.12 13.06,15.12 Z"/>
  </g>
</svg>
