<?xml version="1.0" encoding="UTF-8" standalone="no"?>
<svg width="16px" height="16px" viewBox="0 0 16 16" version="1.1" xmlns="http://www.w3.org/2000/svg" xmlns:xlink="http://www.w3.org/1999/xlink">
    <!-- Generator: Sketch 3.8.3 (29802) - http://www.bohemiancoding.com/sketch -->
    <title>iconNotifComment16</title>
    <desc>Created with Sketch.</desc>
    <defs></defs>
    <g id="Assets" stroke="none" stroke-width="1" fill="none" fill-rule="evenodd">
        <g id="iconNotifComment16" fill="#AAB1B5">
            <path d="M0,7.14285714 C0,8.89707313 0.943521139,10.4924322 2.50835855,11.6215821 C2.84993435,11.8680552 2.9327064,11.927981 2.9327064,11.927981 C2.87687143,12.0596431 2.80337862,12.204888 2.71256922,12.3640461 C2.63304971,12.5034169 2.35907151,12.9478712 2.35907151,12.9478712 L2.303272,13.0584871 C2.22790062,13.2312882 2.1875,13.4189808 2.1875,13.6117143 C2.1875,14.3829261 2.81694947,15 3.583875,15 C3.6621329,14.998122 3.85390581,14.9813641 3.85390581,14.9813641 C4.97287054,14.8017743 6.12803317,14.0895098 6.93019467,13.3394795 L7.04980647,13.2415767 C7.36601952,13.2708205 7.68274501,13.2857143 8,13.2857143 C12.3627901,13.2857143 16,10.6135938 16,7.14285714 C16,3.67202148 12.3630819,1 8,1 C3.63662631,1 0,3.67192243 0,7.14285714 Z M14,7.14285714 C14,9.35218423 11.3681371,11.2857143 8,11.2857143 C7.59818125,11.2857143 7.1958479,11.2559349 6.7925446,11.1978011 C6.45003473,11.1484303 6.10634337,11.2796486 5.88388456,11.5447195 C5.72942627,11.7287643 5.37283947,12.055789 4.99106431,12.3290745 L4.89451103,12.3938989 C4.94862451,12.2313705 4.99049927,12.0690054 5.01962112,11.9038563 C5.04771271,11.7445499 5.0625,11.5861804 5.0625,11.4285714 C5.05541203,11.5544399 5.05541203,11.5544399 5.04885347,11.5871956 C5.05885307,11.5327342 5.05885307,11.5327342 5.066,11.3968571 C5.066,11.0181817 4.85210568,10.6719896 4.51345353,10.50255 C2.92489462,9.70773772 2,8.4519749 2,7.14285714 C2,4.93328411 4.63130088,3 8,3 C11.3684181,3 14,4.93340709 14,7.14285714 Z" id="Path"></path>
        </g>
    </g>
</svg>