<svg xmlns="http://www.w3.org/2000/svg" width="24" height="24" viewBox="0 0 24 24">
  <g fill="none" fill-rule="evenodd">
    <circle cx="12" cy="12" r="12" fill="#FCA567"/>
    <path fill="#FFFFFF" d="M12,6 C13.7268639,5 18.0064677,5.07450895 18.0064677,5.07450895 C19.1074652,5.03335879 20,5.89451376 20,6.99406028 L20,17.0059397 C20,18.1072288 19.1121081,19.0198334 18.0106393,19.074509 C18.0106393,19.074509 13.7455813,19 12,20 C10.4061114,19 6.00220623,19.0732094 6.00220623,19.0732094 C4.89641826,19.032777 4,18.1054862 4,17.0059397 L4,6.99406028 C4,5.8927712 4.90234939,5.01983345 5.99807117,5.0732094 C5.99807117,5.0732094 10.387394,5 12,6 Z M6,17.0059397 C6,17.0281892 5.98551218,17.0732198 6.03666443,17.0726892 C6.3674186,17.0697883 6.80121493,17.0747061 7.30289289,17.0936003 C8.06358162,17.1222494 8.8177339,17.1777681 9.53405677,17.2677885 C11.0178553,17.4542575 12.0229978,17.8093747 12.0229978,17.8093747 C12.0229978,17.8093747 13.4832795,17.4090732 14.3731513,17.2894574 C15.1122563,17.1901075 15.890065,17.1288295 16.6744185,17.0971641 C17.1910149,17.0763084 17.6373198,17.0708378 17.9771047,17.0739671 C18.0286408,17.0745284 18,17.0312607 18,17.0059397 L17.9716525,7.0742059 C17.6592098,7.07125719 17.2790174,7.07586775 16.8349649,7.09364267 C16.1687555,7.12031027 15.5134577,7.17152029 14.9126739,7.25163651 C14.0012017,7.37318391 13.3056004,7.55508434 13.0022502,7.73074969 L11.964815,8.33151228 L10.9459804,7.6997184 C10.6905897,7.54134702 9.981813,7.35762235 9.04038347,7.23841716 C8.44966139,7.16361907 7.80570249,7.11584767 7.15105396,7.09099267 C6.71449063,7.0744177 6.34042062,7.07013371 6.06749953,7.07253491 C6.03277736,7.07289946 6.03277736,7.07289946 6.03142448,7.07293127 L6,17.0059397 Z"/>
    <rect width="2" height="11" x="11" y="7" fill="#FFFFFF"/>
  </g>
</svg>
