<?xml version="1.0" encoding="UTF-8" standalone="no"?>
<svg width="20px" height="20px" viewBox="0 0 20 20" version="1.1" xmlns="http://www.w3.org/2000/svg" xmlns:xlink="http://www.w3.org/1999/xlink">
    <!-- Generator: Sketch 3.6.1 (26313) - http://www.bohemiancoding.com/sketch -->
    <title>iconSearch20</title>
    <desc>Created with Sketch.</desc>
    <defs></defs>
    <g id="Assets" stroke="none" stroke-width="1" fill="none" fill-rule="evenodd">
        <g id="iconSearch20" fill="#D5D8DA">
            <g id="icon-search">
                <path d="M12.3346873,13.7489008 C11.2597336,14.5355664 9.93410396,15 8.5,15 C4.91014895,15 2,12.0898511 2,8.5 C2,4.91014895 4.91014895,2 8.5,2 C12.0898511,2 15,4.91014895 15,8.5 C15,9.93410396 14.5355664,11.2597336 13.7489008,12.3346873 L17.6660612,16.2518477 C18.0554257,16.6412122 18.0572082,17.2707143 17.6639612,17.6639612 C17.2734369,18.0544855 16.6365094,18.050723 16.2518477,17.6660612 L12.3346873,13.7489008 Z M8.5,13 C10.9852815,13 13,10.9852815 13,8.5 C13,6.0147185 10.9852815,4 8.5,4 C6.0147185,4 4,6.0147185 4,8.5 C4,10.9852815 6.0147185,13 8.5,13 Z" id="Search"></path>
            </g>
        </g>
    </g>
</svg>