<svg xmlns="http://www.w3.org/2000/svg" width="16" height="16" viewBox="0 0 16 16">
  <g fill="none" fill-rule="evenodd">
    <circle cx="10" cy="10" r="6" fill="#E9ECEE"/>
    <path fill="#859095" d="M11.8793103,13.1365079 L11.7528736,13.5936508 C11.3735613,13.7257149 11.0708824,13.8264547 10.8448276,13.895873 C10.6187728,13.9652914 10.3563233,14 10.0574713,14 C9.59769885,14 9.24042273,13.9009534 8.98563218,13.7028571 C8.73084164,13.5047609 8.60344828,13.2533349 8.60344828,12.9485714 C8.60344828,12.8300523 8.61302672,12.7089953 8.63218391,12.5853968 C8.65134109,12.4617983 8.68199213,12.3221172 8.72413793,12.1663492 L9.1954023,10.6831746 C9.2375481,10.5409517 9.27298836,10.4063498 9.30172414,10.2793651 C9.33045991,10.1523803 9.34482759,10.0364026 9.34482759,9.93142857 C9.34482759,9.74179799 9.30076672,9.60973582 9.21264368,9.5352381 C9.12452063,9.46074037 8.95593994,9.42349206 8.70689655,9.42349206 C8.58429057,9.42349206 8.4588129,9.44042311 8.33045977,9.47428571 C8.20210664,9.50814832 8.09195448,9.54031731 8,9.57079365 L8.12643678,9.11365079 C8.43678316,9.0019042 8.73371506,8.90624378 9.01724138,8.82666667 C9.3007677,8.74708955 9.56896425,8.70730159 9.82183908,8.70730159 C10.2777801,8.70730159 10.6293091,8.80465511 10.8764368,8.99936508 C11.1235645,9.19407505 11.2471264,9.44719421 11.2471264,9.75873016 C11.2471264,9.8230691 11.2385058,9.93650712 11.2212644,10.0990476 C11.2040229,10.2615881 11.172414,10.4105813 11.1264368,10.5460317 L10.6551724,12.024127 C10.616858,12.1426461 10.5823756,12.2780945 10.5517241,12.4304762 C10.5210726,12.5828579 10.5057471,12.697989 10.5057471,12.775873 C10.5057471,12.9722761 10.5555551,13.1060314 10.6551724,13.1771429 C10.7547898,13.2482543 10.9272018,13.2838095 11.1724138,13.2838095 C11.2873569,13.2838095 11.4176238,13.2660319 11.5632184,13.2304762 C11.708813,13.1949205 11.8141759,13.163598 11.8793103,13.1365079 Z M12,6.93460317 C12,7.19195896 11.8898478,7.41121603 11.6695402,7.59238095 C11.4492326,7.77354588 11.1839096,7.86412698 10.8735632,7.86412698 C10.5632168,7.86412698 10.296936,7.77354588 10.0747126,7.59238095 C9.85248931,7.41121603 9.74137931,7.19195896 9.74137931,6.93460317 C9.74137931,6.67724739 9.85248931,6.45714377 10.0747126,6.27428571 C10.296936,6.09142766 10.5632168,6 10.8735632,6 C11.1839096,6 11.4492326,6.09142766 11.6695402,6.27428571 C11.8898478,6.45714377 12,6.67724739 12,6.93460317 Z"/>
  </g>
</svg>
