<?xml version="1.0" encoding="UTF-8" standalone="no"?>
<svg width="20px" height="20px" viewBox="0 0 20 20" version="1.1" xmlns="http://www.w3.org/2000/svg" xmlns:xlink="http://www.w3.org/1999/xlink">
    <!-- Generator: Sketch 3.8.3 (29802) - http://www.bohemiancoding.com/sketch -->
    <title>iconDownload20</title>
    <desc>Created with Sketch.</desc>
    <defs></defs>
    <g id="Assets" stroke="none" stroke-width="1" fill="none" fill-rule="evenodd">
        <g id="iconDownload20" fill="#AAB1B5">
            <path d="M11,10.5857864 L12.1278413,9.45794513 C12.5095395,9.07624692 13.1450096,9.0739418 13.5355339,9.46446609 C13.9287809,9.85771305 13.9289777,10.4852358 13.5420549,10.8721587 L10.7005858,13.7136277 C10.510799,13.9034146 10.2582734,13.9994061 10.0043138,13.9999505 C9.74369276,14.0027018 9.49180915,13.9060227 9.29941418,13.7136277 L6.45794513,10.8721587 C6.07624692,10.4904605 6.0739418,9.85499039 6.46446609,9.46446609 C6.85771305,9.07121914 7.48523583,9.07102227 7.8721587,9.45794513 L9,10.5857864 L9,2.9955775 C9,2.44483697 9.44771525,2 10,2 C10.5561352,2 11,2.44573523 11,2.9955775 L11,10.5857864 Z M18,16 L2,16 L2,12.990778 C2,12.4435864 1.55613518,12 1,12 C0.44771525,12 0,12.4509752 0,12.990778 L0,17.009222 C0,17.2814775 0.109881641,17.5280848 0.288801804,17.7071679 C0.47271533,17.8902571 0.719438096,18 0.99180311,18 L19.0081969,18 C19.2749526,18 19.5216356,17.8893137 19.7022583,17.7101221 C19.8891726,17.524374 20,17.2777922 20,17.009222 L20,12.990778 C20,12.4435864 19.5561352,12 19,12 C18.4477153,12 18,12.4509752 18,12.990778 L18,16 Z" id="Combined-Shape"></path>
        </g>
    </g>
</svg>