<?xml version="1.0" encoding="UTF-8" standalone="no"?>
<svg width="24px" height="24px" viewBox="0 0 24 24" version="1.1" xmlns="http://www.w3.org/2000/svg" xmlns:xlink="http://www.w3.org/1999/xlink">
    <!-- Generator: Sketch 3.7.2 (28276) - http://www.bohemiancoding.com/sketch -->
    <title>icon-approve</title>
    <desc>Created with Sketch.</desc>
    <defs>
        <circle id="path-1" cx="12" cy="12" r="12"></circle>
        <mask id="mask-2" maskContentUnits="userSpaceOnUse" maskUnits="objectBoundingBox" x="0" y="0" width="24" height="24" fill="white">
            <use xlink:href="#path-1"></use>
        </mask>
    </defs>
    <g id="Assessment" stroke="none" stroke-width="1" fill="none" fill-rule="evenodd">
        <g id="Assessments---AssessmentRequest" transform="translate(-906.000000, -223.000000)">
            <g id="main" transform="translate(360.000000, 204.000000)">
                <g id="icon-approve" transform="translate(546.000000, 19.000000)">
                    <use id="Oval-34" stroke="#64C0CD" mask="url(#mask-2)" stroke-width="4" fill="#FFFFFF" xlink:href="#path-1"></use>
                    <path d="M12.5,13.5 L9.50292933,13.5 C8.93788135,13.5 8.5,13.9472481 8.5,14.4989566 L8.5,15.5010434 C8.5,16.0573397 8.94902676,16.5 9.50292933,16.5 L14.4970707,16.5 C14.7802568,16.5 15.0315021,16.3876633 15.2116934,16.2061403 C15.3888663,16.0260303 15.5,15.7749375 15.5,15.4975267 L15.5,5.50247329 C15.5,4.95576096 15.0527519,4.5 14.5010434,4.5 L13.4989566,4.5 C12.9426603,4.5 12.5,4.94882258 12.5,5.50247329 L12.5,13.5 Z" id="Rectangle-3" fill="#64C0CD" transform="translate(12.000000, 10.500000) rotate(-315.000000) translate(-12.000000, -10.500000) "></path>
                </g>
            </g>
        </g>
    </g>
</svg>