<?xml version="1.0" encoding="UTF-8" standalone="no"?>
<svg width="16px" height="13px" viewBox="0 0 16 13" version="1.1" xmlns="http://www.w3.org/2000/svg" xmlns:xlink="http://www.w3.org/1999/xlink">
    <!-- Generator: Sketch 3.8.2 (29753) - http://www.bohemiancoding.com/sketch -->
    <title>icon-twitter</title>
    <desc>Created with Sketch.</desc>
    <defs></defs>
    <g id="Profile" stroke="none" stroke-width="1" fill="none" fill-rule="evenodd">
        <g id="AccountSettings---Personal" transform="translate(-245.000000, -979.000000)" fill="#55ACEE">
            <g id="social" transform="translate(30.000000, 758.000000)">
                <g id="button" transform="translate(200.000000, 212.000000)">
                    <path d="M29.1146093,11.0555028 C29.7927654,10.6495978 30.3127499,10.0066444 30.5579644,9.2396463 C29.9236547,9.6160014 29.2214644,9.88909427 28.4734791,10.036519 C27.874896,9.39876105 27.0216796,9 26.0775227,9 C24.2648844,9 22.7952216,10.469376 22.7952216,12.2819853 C22.7952216,12.538842 22.8241276,12.7892042 22.8803159,13.0298246 C20.152102,12.8927911 17.7330857,11.5864265 16.1140207,9.60073937 C15.8314557,10.0852276 15.6697115,10.6489484 15.6697115,11.2509867 C15.6697115,12.389469 16.2491322,13.394165 17.1299555,13.9825648 C16.5921077,13.9653544 16.0857642,13.817605 15.643079,13.571789 C15.6427542,13.5854274 15.6427542,13.5993905 15.6427542,13.6133536 C15.6427542,15.2032023 16.7743134,16.529375 18.2761302,16.8313683 C18.0007105,16.9060549 17.7106754,16.9463206 17.4112214,16.9463206 C17.19946,16.9463206 16.9938696,16.925863 16.7934758,16.8872209 C17.2114772,18.1909877 18.4235836,19.1401559 19.8597934,19.1664585 C18.7363539,20.0467852 17.3212553,20.5715392 15.7830623,20.5715392 C15.5183606,20.5715392 15.2569068,20.5559524 15,20.5254284 C16.4530987,21.4570615 18.1783692,22 20.0319307,22 C26.0700526,22 29.3715161,16.9992506 29.3715161,12.6622371 C29.3715161,12.520008 29.3685931,12.3781036 29.3624221,12.2371734 C30.0035524,11.7754159 30.5602379,11.1970825 31,10.538867 C30.4118101,10.8002698 29.7787995,10.9765949 29.1146093,11.0555028 Z" id="icon-twitter"></path>
                </g>
            </g>
        </g>
    </g>
</svg>