<svg xmlns="http://www.w3.org/2000/svg" width="16" height="16" viewBox="0 0 16 16">
  <path fill="#FCA567" fill-rule="evenodd" d="M14.8604,0.649999976 C14.6494,0.649999976 14.4194,0.700999976 14.1784,0.807999976 L7.0004,3.99799998 L0.9974,3.99799998 C0.4464,3.99799998 0.0004,4.44199998 0.0004,4.98899998 L0.0004,9.00799998 C0.0004,9.54699998 0.4464,9.99799998 0.9974,9.99799998 L2.0004,9.99799998 L2.0004,13.001 C2.0004,14.103 2.8974,14.998 4.0054,14.998 L4.9954,14.998 C6.1064,14.998 7.0004,14.104 7.0004,13.001 L7.0004,9.99799998 L14.1784,13.189 C14.4194,13.296 14.6504,13.347 14.8604,13.347 C15.5284,13.347 16.0004,12.835 16.0004,11.993 L16.0004,2.00399998 C16.0004,1.16099998 15.5284,0.649999976 14.8604,0.649999976 Z M14.0004,3.07599998 L13.9994,10.921 L7.8124,8.17099998 C7.5524,8.05499998 7.2764,7.99799998 7.0004,7.99799998 C6.6194,7.99799998 6.2394,8.10699998 5.9104,8.32099998 C5.3424,8.68999998 5.0004,9.32099998 5.0004,9.99799998 L4.9954,12.998 L4.0004,13.001 L4.0004,9.99799998 C4.0004,8.89399998 3.1044,7.99799998 2.0004,7.99799998 L2.0004,5.99799998 L7.0004,5.99799998 C7.2794,5.99799998 7.5564,5.93999998 7.8124,5.82599998 L14.0004,3.07599998 Z"/>
</svg>
