<svg xmlns="http://www.w3.org/2000/svg" width="24" height="24" viewBox="0 0 24 24">
  <g fill="none" fill-rule="evenodd">
    <circle cx="12" cy="12" r="12" fill="#BE8BDB"/>
    <g fill="#FFFFFF" transform="translate(4 6)">
      <path d="M2,9.99414134 C2,9.99787407 9.99414134,10 9.99414134,10 C9.99787407,10 10,2.00585866 10,2.00585866 C10,2.00212593 2.00585866,2 2.00585866,2 C2.00212593,2 2,9.99414134 2,9.99414134 Z M2.00585866,0 L9.99414134,0 C11.1019465,0 12,0.897060126 12,2.00585866 L12,9.99414134 C12,11.1019465 11.1029399,12 9.99414134,12 L2.00585866,12 C0.898053512,12 0,11.1029399 0,9.99414134 L0,2.00585866 C0,0.898053512 0.897060126,0 2.00585866,0 Z"/>
      <path d="M12,4.49737552 L12,7.48522949 L14.9999999,8.34466552 L14.9999999,3.65228271 L12,4.49737552 Z M10,3.99077797 C10,3.44358641 10.4378814,2.87489104 10.9586427,2.72610208 L15.0686892,1.55180308 C16.1353227,1.24705066 17,1.88743329 17,2.99961498 L17,9.00038502 C17,10.1047419 16.1416626,10.7547607 15.0686892,10.4481969 L10.9586427,9.27389792 C10.429199,9.12262827 10,8.54902482 10,8.00922203 L10,3.99077797 L10,3.99077797 Z"/>
    </g>
  </g>
</svg>
