<svg xmlns="http://www.w3.org/2000/svg" width="20" height="20" viewBox="0 0 20 20">
  <path fill="#AAB1B5" fill-rule="evenodd" d="M1,1 L15,1 C15.5522847,1 16,1.44771525 16,2 L16,14 C16,14.5522847 15.5522847,15 15,15 L1,15 C0.44771525,15 6.76353751e-17,14.5522847 0,14 L0,2 C-6.76353751e-17,1.44771525 0.44771525,1 1,1 Z M2,3 L2,13 L14,13 L14,3 L2,3 Z M6.495813,4.85400565 L10.4850271,7.13157069 C10.9646474,7.40540065 11.1314734,8.01619274 10.8576434,8.495813 C10.768986,8.65109874 10.6403128,8.77977191 10.4850271,8.86842931 L6.495813,11.1459943 C6.01619274,11.4198243 5.40540065,11.2529983 5.13157069,10.773378 C5.04534896,10.6223585 5,10.4514647 5,10.277565 L5,5.72243496 C5,5.17015021 5.44771525,4.72243496 6,4.72243496 C6.17389969,4.72243496 6.34479342,4.76778393 6.495813,4.85400565 Z" transform="translate(2 2)"/>
</svg>
