<?xml version="1.0" encoding="UTF-8" standalone="no"?>
<svg width="20px" height="20px" viewBox="0 0 20 20" version="1.1" xmlns="http://www.w3.org/2000/svg" xmlns:xlink="http://www.w3.org/1999/xlink">
    <!-- Generator: Sketch 3.6.1 (26313) - http://www.bohemiancoding.com/sketch -->
    <title>iconUser20</title>
    <desc>Created with Sketch.</desc>
    <defs></defs>
    <g id="Assets" stroke="none" stroke-width="1" fill="none" fill-rule="evenodd">
        <g id="iconUser20" fill="#D5D8DA">
            <g id="icon-user">
                <path d="M7,7.00109867 L7,7.00109867 L7,7.99890133 C7,9.65633936 8.34332748,11 10,11 C11.6534249,11 13,9.6541737 13,7.99890133 L13,7.00109867 C13,5.34366064 11.6566725,4 10,4 C8.34657511,4 7,5.3458263 7,7.00109867 L7,7.00109867 Z M5,7.00109867 C5,4.23906814 7.24419519,2 10,2 C12.7614237,2 15,4.23927286 15,7.00109867 L15,7.99890133 C15,10.7609319 12.7558048,13 10,13 C7.23857625,13 5,10.7607271 5,7.99890133 L5,7.00109867 L5,7.00109867 Z" id="Rectangle-146"></path>
                <path d="M1.49330882,17.8698542 C1.57694109,17.822425 1.76371991,17.7272353 2.04761941,17.5997739 C2.53548287,17.3807393 3.10876854,17.1601226 3.76145959,16.9532734 C5.63975458,16.3580089 7.76617517,16 10.0949707,16 C12.421475,16 14.5091211,16.357192 16.3250282,16.9505433 C16.9546638,17.1562781 17.5034958,17.3754962 17.9670478,17.5928848 C18.2355102,17.7187837 18.4099637,17.812214 18.4858827,17.8577199 C18.9595883,18.141659 19.5737807,17.9878229 19.8577199,17.5141173 C20.141659,17.0404117 19.9878229,16.4262193 19.5141173,16.1422801 C19.0356127,15.8554645 18.1686472,15.4488898 16.9462121,15.0494567 C14.9365881,14.392808 12.6407809,14 10.0949707,14 C7.55145178,14 5.22319098,14.3919911 3.15724158,15.0467266 C1.90380431,15.4439628 1.00542598,15.8473049 0.506691176,16.1301458 C0.0262839431,16.4025927 -0.142301184,17.0129016 0.130145757,17.4933088 C0.402592697,17.9737161 1.01290159,18.1423012 1.49330882,17.8698542 L1.49330882,17.8698542 Z" id="Line"></path>
            </g>
        </g>
    </g>
</svg>