<svg xmlns="http://www.w3.org/2000/svg" width="24" height="24" viewBox="0 0 24 24">
  <g fill="none" fill-rule="evenodd">
    <circle cx="12" cy="12" r="12" fill="#BE8BDB"/>
    <g fill="#FFFFFF" transform="translate(5 4)">
      <path d="M2,1.99406028 L2,1.99406028 L2,14.0059397 C2,13.9991406 2.00086396,14 2.00585866,14 L11.9941413,14 C12.0005077,14 12,14.0005048 12,14.0059397 L12,1.99406028 C12,2.00085939 11.999136,2 11.9941413,2 L2.00585866,2 C1.99949235,2 2,1.99949516 2,1.99406028 L2,1.99406028 Z M0,1.99406028 C0,0.892771196 0.897060126,0 2.00585866,0 L11.9941413,0 C13.1019465,0 14,0.894513756 14,1.99406028 L14,14.0059397 C14,15.1072288 13.1029399,16 11.9941413,16 L2.00585866,16 C0.898053512,16 0,15.1054862 0,14.0059397 L0,1.99406028 L0,1.99406028 Z"/>
      <rect width="6" height="2" x="4" y="10" rx="1"/>
      <rect width="6" height="2" x="4" y="7" rx="1"/>
      <rect width="6" height="2" x="4" y="4" rx="1"/>
    </g>
  </g>
</svg>
