<?xml version="1.0" encoding="UTF-8" standalone="no"?>
<svg width="20px" height="20px" viewBox="0 0 20 20" version="1.1" xmlns="http://www.w3.org/2000/svg" xmlns:xlink="http://www.w3.org/1999/xlink">
    <!-- Generator: Sketch 3.6.1 (26313) - http://www.bohemiancoding.com/sketch -->
    <title>iconSlide20</title>
    <desc>Created with Sketch.</desc>
    <defs></defs>
    <g id="Assets" stroke="none" stroke-width="1" fill="none" fill-rule="evenodd">
        <g id="iconSlide20" fill="#D5D8DA">
            <g id="icon-slide">
                <path d="M2,8.00585866 L2,8.00585866 L2,17.9941413 C2,18.0012361 1.99877271,18 1.99079514,18 L18.0092049,18 C17.9972918,18 18,17.9972779 18,17.9941413 L18,8.00585866 C18,7.99876385 18.0012273,8 18.0092049,8 L1.99079514,8 C2.00270816,8 2,8.00272214 2,8.00585866 L2,8.00585866 Z M0,8.00585866 C0,6.89805351 0.898212381,6 1.99079514,6 L18.0092049,6 C19.1086907,6 20,6.89706013 20,8.00585866 L20,17.9941413 C20,19.1019465 19.1017876,20 18.0092049,20 L1.99079514,20 C0.891309342,20 0,19.1029399 0,17.9941413 L0,8.00585866 L0,8.00585866 Z" id="Rectangle-111"></path>
                <rect id="Rectangle-32" x="3" y="3" width="14" height="2" rx="2"></rect>
                <rect id="Rectangle-32" x="6" y="0" width="8" height="2" rx="2"></rect>
            </g>
        </g>
    </g>
</svg>