<?xml version="1.0" encoding="UTF-8" standalone="no"?>
<svg width="20px" height="20px" viewBox="0 0 20 20" version="1.1" xmlns="http://www.w3.org/2000/svg" xmlns:xlink="http://www.w3.org/1999/xlink">
    <!-- Generator: Sketch 3.6.1 (26313) - http://www.bohemiancoding.com/sketch -->
    <title>iconMandFlow20</title>
    <desc>Created with Sketch.</desc>
    <defs></defs>
    <g id="Assets" stroke="none" stroke-width="1" fill="none" fill-rule="evenodd">
        <g id="iconMandFlow20" fill="#D5D8DA">
            <g id="icon-flow">
                <path d="M15.6568542,10.6568542 L9.65685425,10.6568542 L9.65685425,12.6568542 L16.6568542,12.6568542 L17.6568542,12.6568542 L17.6568542,4.65685425 L15.6568542,4.65685425 L15.6568542,10.6568542 Z" id="Rectangle-3" transform="translate(13.656854, 8.656854) rotate(-315.000000) translate(-13.656854, -8.656854) "></path>
                <path d="M4.54199219,8 L3.06103516,8 L3.06103516,3.09130859 L1.6328125,3.09130859 L1.6328125,2.04541016 L4.54199219,1.59716797 L4.54199219,8 Z" id="1"></path>
                <path d="M5.86914062,18 L1.39111328,18 L1.39111328,17.0332031 L3.44775391,14.8710938 C3.7084974,14.5722641 3.90039001,14.3056652 4.0234375,14.0712891 C4.14648499,13.8369129 4.20800781,13.6333016 4.20800781,13.4604492 C4.20800781,13.2143542 4.14575258,13.0180671 4.02124023,12.871582 C3.89672789,12.7250969 3.70996218,12.6518555 3.4609375,12.6518555 C3.23828014,12.6518555 3.06323306,12.7463369 2.93579102,12.9353027 C2.80834897,13.1242685 2.74462891,13.3652329 2.74462891,13.6582031 L1.29443359,13.6582031 L1.28564453,13.6318359 C1.27099602,13.0400361 1.46435346,12.5383321 1.86572266,12.126709 C2.26709185,11.7150858 2.79882481,11.5092773 3.4609375,11.5092773 C4.16406602,11.5092773 4.71264451,11.6821272 5.10668945,12.027832 C5.50073439,12.3735369 5.69775391,12.8466767 5.69775391,13.4472656 C5.69775391,13.8515645 5.59301863,14.2089828 5.38354492,14.5195312 C5.17407122,14.8300797 4.78808875,15.2915008 4.22558594,15.9038086 L3.35986328,16.8310547 L3.37304687,16.8574219 L5.86914062,16.8574219 L5.86914062,18 Z" id="2"></path>
            </g>
        </g>
    </g>
</svg>