<?xml version="1.0" encoding="UTF-8" standalone="no"?>
<svg width="16px" height="16px" viewBox="0 0 16 16" version="1.1" xmlns="http://www.w3.org/2000/svg" xmlns:xlink="http://www.w3.org/1999/xlink">
    <!-- Generator: Sketch 3.8.2 (29753) - http://www.bohemiancoding.com/sketch -->
    <title>iconNotifMention16</title>
    <desc>Created with Sketch.</desc>
    <defs></defs>
    <g id="Assets" stroke="none" stroke-width="1" fill="none" fill-rule="evenodd">
        <g id="iconNotifMention16" fill="#AAB1B5">
            <path d="M15.0642857,13.3964286 C14.2107143,14.3 13.1964286,14.9607143 12.0214286,15.375 C10.8464286,15.7928571 9.60714286,16 8.30357143,16 C7.05714286,16 5.92142857,15.8035714 4.9,15.4071429 C3.87857143,15.0142857 3.00357143,14.4642857 2.28214286,13.7607143 C1.55714286,13.0571429 0.996428571,12.2142857 0.596428571,11.2321429 C0.196428571,10.25 0,9.17857143 0,8.01785714 C0,6.87142857 0.217857143,5.81071429 0.653571429,4.83571429 C1.08928571,3.86071429 1.68214286,3.01428571 2.43571429,2.29642857 C3.18928571,1.57857143 4.06785714,1.01785714 5.07857143,0.607142857 C6.08214286,0.203571429 7.16071429,0 8.30357143,0 C9.28928571,0 10.2464286,0.142857143 11.1714286,0.428571429 C12.1,0.714285714 12.9214286,1.14642857 13.6392857,1.71785714 C14.3571429,2.29285714 14.9285714,3.00714286 15.3571429,3.86785714 C15.7857143,4.72857143 16,5.73928571 16,6.9 C16,7.76071429 15.8821429,8.52142857 15.6428571,9.17857143 C15.4035714,9.83928571 15.0857143,10.3892857 14.6857143,10.8357143 C14.2857143,11.2821429 13.8321429,11.6142857 13.3178571,11.8357143 C12.8035714,12.0571429 12.2642857,12.1678571 11.7,12.1678571 C11.1214286,12.1678571 10.6571429,12.0321429 10.3071429,11.7607143 C9.96071429,11.4892857 9.78571429,11.1428571 9.78571429,10.7285714 L9.67857143,10.7285714 C9.46071429,11.0714286 9.12857143,11.4 8.67857143,11.7071429 C8.22857143,12.0142857 7.67857143,12.1714286 7.025,12.1714286 C6.03928571,12.1714286 5.27857143,11.85 4.74285714,11.2035714 C4.20714286,10.5571429 3.93928571,9.72142857 3.93928571,8.68571429 C3.93928571,8.08214286 4.03928571,7.48928571 4.24285714,6.9 C4.44642857,6.31071429 4.73571429,5.78928571 5.11071429,5.32857143 C5.48571429,4.87142857 5.93571429,4.5 6.45714286,4.22142857 C6.97857143,3.94285714 7.55714286,3.80357143 8.19642857,3.80357143 C8.74642857,3.80357143 9.21071429,3.91785714 9.58928571,4.14642857 C9.96428571,4.375 10.2107143,4.65714286 10.3285714,4.98571429 L10.35,4.98571429 L10.525,4.125 L12.4607143,4.125 L11.6071429,8.19285714 C11.5785714,8.39285714 11.5392857,8.61428571 11.4892857,8.86071429 C11.4392857,9.10357143 11.4142857,9.33214286 11.4142857,9.55 C11.4142857,9.79285714 11.4607143,9.99642857 11.5571429,10.1642857 C11.65,10.3285714 11.8357143,10.4107143 12.1107143,10.4107143 C12.675,10.4107143 13.1428571,10.1107143 13.5142857,9.50714286 C13.8821429,8.90357143 14.0678571,8.09642857 14.0678571,7.07857143 C14.0678571,6.21785714 13.9214286,5.45357143 13.6321429,4.78928571 C13.3428571,4.12142857 12.9392857,3.56428571 12.425,3.11071429 C11.9107143,2.66071429 11.2964286,2.31785714 10.5892857,2.08928571 C9.87857143,1.86071429 9.10357143,1.74642857 8.26428571,1.74642857 C7.35,1.74642857 6.51428571,1.90714286 5.75357143,2.22857143 C4.99285714,2.55 4.34285714,2.99642857 3.80714286,3.56071429 C3.27142857,4.12857143 2.85357143,4.79285714 2.55714286,5.56071429 C2.25714286,6.325 2.10714286,7.15357143 2.10714286,8.04285714 C2.10714286,8.98928571 2.26428571,9.84285714 2.575,10.6035714 C2.88571429,11.3642857 3.325,12.0107143 3.88928571,12.55 C4.45357143,13.0892857 5.12857143,13.5 5.91071429,13.7857143 C6.69285714,14.0714286 7.55714286,14.2142857 8.49642857,14.2142857 C9.67142857,14.2142857 10.6821429,14.0285714 11.5285714,13.6535714 C12.375,13.2821429 13.1535714,12.7642857 13.8642857,12.1035714 L15.0642857,13.3964286 L15.0642857,13.3964286 Z M8.26071429,5.57142857 C7.91428571,5.57142857 7.60714286,5.67142857 7.34642857,5.87142857 C7.08571429,6.07142857 6.86428571,6.325 6.68214286,6.63571429 C6.5,6.94285714 6.36428571,7.28571429 6.26785714,7.65714286 C6.175,8.02857143 6.125,8.38928571 6.125,8.73214286 C6.125,8.90357143 6.14285714,9.08571429 6.17857143,9.28214286 C6.21428571,9.475 6.28571429,9.65357143 6.39642857,9.82142857 C6.50357143,9.98571429 6.64642857,10.1214286 6.82142857,10.2285714 C6.99642857,10.3357143 7.22857143,10.3892857 7.51785714,10.3892857 C7.91071429,10.3892857 8.24285714,10.2928571 8.51785714,10.1 C8.79285714,9.90714286 9.01785714,9.66428571 9.19285714,9.36785714 C9.36785714,9.075 9.49285714,8.75357143 9.575,8.41071429 C9.65357143,8.06785714 9.69285714,7.75 9.69285714,7.46428571 C9.69285714,7.23571429 9.67142857,7.01071429 9.62857143,6.78571429 C9.58571429,6.56428571 9.51071429,6.36428571 9.4,6.18214286 C9.29285714,6.00357143 9.14285714,5.85714286 8.95357143,5.74285714 C8.76785714,5.62857143 8.53571429,5.57142857 8.26071429,5.57142857 L8.26071429,5.57142857 Z" id="Shape"></path>
        </g>
    </g>
</svg>