<svg xmlns="http://www.w3.org/2000/svg" width="20" height="20" viewBox="0 0 20 20">
  <path fill="#D5D8DA" fill-rule="evenodd" d="M9.06931775,14.2297372 L10,13.7404485 L10.9306823,14.2297372 L13.2186831,15.4171877 L12.7840659,12.8831751 L12.6063214,11.8468452 L13.3592592,11.1129122 L15.2268235,9.30837023 L12.6513296,8.93412906 L11.6107952,8.78293056 L11.1454541,7.84004645 L10.0116276,5.49554279 L8.85454589,7.84004645 L8.38920476,8.78293056 L7.34867037,8.93412906 L4.79413288,9.31291439 L6.6407408,11.1129122 L7.39367856,11.8468452 L7.21593407,12.8831751 L6.77741228,15.4399533 L9.06931775,14.2297372 Z M5.88569705,18.1630171 C4.91171551,18.6750695 4.27354225,18.2074707 4.45895547,17.1264286 L5.24471742,12.545085 L1.91617641,9.30055937 C1.1282088,8.53248078 1.3757153,7.78104597 2.4611432,7.62332406 L7.06107374,6.95491503 L9.11822522,2.78667086 C9.60521598,1.79991979 10.3963567,1.80310634 10.8817748,2.78667086 L12.9389263,6.95491503 L17.5388568,7.62332406 C18.6278013,7.78155695 18.8692466,8.53496116 18.0838236,9.30055937 L14.7552826,12.545085 L15.5410445,17.1264286 C15.7270584,18.210973 15.0851392,18.6734159 14.114303,18.1630171 L10,16 L5.88569705,18.1630171 Z"/>
</svg>
