<?xml version="1.0" encoding="UTF-8" standalone="no"?>
<svg width="16px" height="16px" viewBox="0 0 16 16" version="1.1" xmlns="http://www.w3.org/2000/svg" xmlns:xlink="http://www.w3.org/1999/xlink">
    <!-- Generator: Sketch 3.8.1 (29687) - http://www.bohemiancoding.com/sketch -->
    <title>iconWebsite16White</title>
    <desc>Created with Sketch.</desc>
    <defs></defs>
    <g id="Assets" stroke="none" stroke-width="1" fill="none" fill-rule="evenodd">
        <g id="iconWebsite16White" fill="#FFFFFF">
            <g id="Group">
                <path d="M8,0.0309333333 C3.58181818,0.0309333333 0,3.60585399 0,8.0155277 C0,12.4252014 3.58181818,16.0001221 8,16.0001221 C12.4181818,16.0001221 16,12.4252014 16,8.0155277 C16,3.60585399 12.4181818,0.0309333333 8,0.0309333333 L8,0.0309333333 Z M1.47381818,4.67869313 C1.55018182,4.9850112 1.39745455,5.53522234 1.27963636,6.32569718 C1.14218182,7.2475549 1.87854545,7.04830297 1.85381818,7.92007551 C1.82909091,8.79184804 2.50290909,9.1533324 2.41527273,9.24043707 C2.328,9.32754173 1.97854545,9.45202882 2.50254545,10.5858412 C3.02654545,11.7192907 3.476,12.0557325 3.53854545,12.665828 C3.60109091,13.2762866 4.27490909,14.1731017 4.27490909,14.1731017 L4.31236364,14.3407782 C2.13272727,13.0701389 0.664363636,10.7114171 0.664363636,8.0155277 C0.664363636,6.81384625 0.957818182,5.68003385 1.47381818,4.67869313 L1.47381818,4.67869313 Z M5.09854545,14.5091805 C5.06109091,14.347311 5.136,13.4751756 6.18436364,13.1267569 C7.23272727,12.7779753 7.05781818,12.3170464 7.36981818,11.8688204 C7.68181818,11.4205943 7.74436364,11.0841525 7.14509091,10.9469626 C6.54618182,10.8097728 5.92218182,10.7103283 5.38545455,9.86323543 C4.84872727,9.01614255 4.1,8.9914629 3.70072727,8.72978596 C3.30145455,8.46810903 2.97672727,8.51819421 2.49018182,8.4557692 C2.00363636,8.39334419 2.16581818,7.03596315 2.19054545,6.73690379 C2.21563636,6.43784444 1.89090909,6.83671122 1.65381818,6.62947471 C1.41672727,6.42223819 1.87854545,5.45392465 2.34036364,5.49130707 C2.80218182,5.52868949 2.68981818,5.75298401 2.77709091,6.26363511 C2.86436364,6.77428621 3.02654545,6.64979913 3.064,6.48792962 C3.10145455,6.32606012 3.12654545,5.64083675 3.28872727,5.429245 C3.45090909,5.21765325 3.48836364,4.64457713 4.01272727,4.66961973 C4.53672727,4.69466232 4.52436364,4.19635104 4.91127273,4.35822054 C5.29818182,4.52009005 5.57272727,4.39560296 5.32327273,4.18401121 C5.07381818,3.97241946 5.21090909,3.76046478 5.63527273,3.89765462 C6.05963636,4.03484447 6.08436364,3.28719609 6.00981818,2.90103207 C5.93490909,2.51486805 5.62290909,2.4027208 5.236,2.63935514 C4.84909091,2.87598948 4.56218182,2.77654499 4.76181818,2.37767821 C4.96145455,1.97917436 5.74763636,2.31525319 6.22181818,2.51486805 C6.696,2.71411998 6.82072727,1.99187712 6.55890909,1.64309552 C6.29672727,1.29431392 6.28436364,1.45618343 5.53563636,1.50590567 C5.23745455,1.52586716 5.268,1.36581234 5.41272727,1.16619748 C6.21781818,0.86205702 7.08981818,0.694380538 8.00036364,0.694380538 C8.92218182,0.694380538 9.804,0.866412253 10.6174545,1.17781143 C10.72,1.32080826 10.7614545,1.43331845 10.6901818,1.48086308 C10.3905455,1.68011501 10.1287273,1.50227631 10.216,2.05829443 C10.3032727,2.61431255 10.7152727,3.27485626 11.0396364,3.05673166 C11.364,2.83860706 11.9258182,3.11262382 11.4389091,3.41168318 C10.9523636,3.71074253 10.8149091,3.68569994 10.5901818,3.88495186 C10.3654545,4.08420378 10.4654545,3.98475929 10.6901818,4.23373346 C10.9149091,4.48270763 10.8898182,4.53279281 10.5778182,4.6572799 C10.2658182,4.78176698 10.0785455,5.05578374 10.3781818,5.36718292 C10.6778182,5.6785821 10.8774545,5.94025904 11.2141818,5.36718292 C11.5512727,4.79410681 11.6134545,4.29615847 11.9007273,4.44532521 C12.1876364,4.59485489 12.5123636,5.05578374 12.7243636,4.79410681 C12.9363636,4.53242988 12.8989091,4.35822054 13.1861818,4.55747247 C13.4730909,4.75672439 14.5341818,4.76906422 13.8225455,5.29241809 C13.1112727,5.81540902 13.236,6.03970353 12.8989091,5.97764146 C12.5618182,5.91521645 11.0392727,5.59147744 10.6898182,6.43857031 C10.3403636,7.28566319 9.06727273,7.9581838 9.72872727,8.78023408 C10.3901818,9.60228436 10.2403636,10.2000401 11.1887273,10.3248902 C12.1370909,10.4493772 12.624,10.0258308 12.8610909,10.46208 C13.0981818,10.8979663 12.9109091,10.9480515 12.9236364,11.6078693 C12.9298182,11.9352377 13.1047273,12.5518661 13.2792727,13.091915 C11.944,14.4747016 10.0716364,15.3377637 8,15.3377637 C6.95709091,15.3377637 5.96472727,15.1178244 5.06545455,14.7244017 C5.09236364,14.6206019 5.10618182,14.5422077 5.09854545,14.5091805 L5.09854545,14.5091805 Z" id="Shape"></path>
                <path d="M8.03127273,2.31489026 C8.26109091,2.17697454 8.28072727,2.36461251 8.48036364,1.72947432 C8.68,1.09433613 7.73163636,1.00686853 7.28218182,1.08163337 C6.83309091,1.1563982 7.03272727,1.3433103 7.03272727,1.3433103 C7.18254545,1.57994464 7.28145455,2.45171717 7.01345455,2.77581912 C6.74581818,3.09955812 7.23236364,3.16198313 7.44436364,2.86292378 C7.65636364,2.56386443 7.78254545,2.464057 8.03127273,2.31489026 L8.03127273,2.31489026 Z" id="Shape"></path>
            </g>
        </g>
    </g>
</svg>