<?xml version="1.0" encoding="UTF-8" standalone="no"?>
<svg width="16px" height="16px" viewBox="0 0 16 16" version="1.1" xmlns="http://www.w3.org/2000/svg" xmlns:xlink="http://www.w3.org/1999/xlink">
    <!-- Generator: Sketch 3.8.1 (29687) - http://www.bohemiancoding.com/sketch -->
    <title>iconTwitter16White</title>
    <desc>Created with Sketch.</desc>
    <defs></defs>
    <g id="Assets" stroke="none" stroke-width="1" fill="none" fill-rule="evenodd">
        <g id="iconTwitter16White" fill="#FFFFFF">
            <path d="M14.1146093,4.05550282 C14.7927654,3.64959784 15.3127499,3.00664435 15.5579644,2.2396463 C14.9236547,2.6160014 14.2214644,2.88909427 13.4734791,3.03651896 C12.874896,2.39876105 12.0216796,2 11.0775227,2 C9.2648844,2 7.79522157,3.46937603 7.79522157,5.28198531 C7.79522157,5.53884198 7.82412764,5.78920418 7.88031586,6.02982465 C5.15210198,5.89279113 2.73308568,4.58642654 1.11402066,2.60073937 C0.831455656,3.08522756 0.669711548,3.64894839 0.669711548,4.25098666 C0.669711548,5.38946895 1.24913221,6.39416496 2.12995554,6.98256482 C1.59210767,6.96535445 1.08576416,6.81760504 0.643078984,6.57178898 C0.642754197,6.58542739 0.642754197,6.59939052 0.642754197,6.61335365 C0.642754197,8.20320228 1.77431338,9.52937503 3.27613016,9.83136834 C3.00071047,9.90605485 2.71067535,9.94632063 2.4112214,9.94632063 C2.19946004,9.94632063 1.99386964,9.92586302 1.79347583,9.88722086 C2.21147717,11.1909877 3.42358362,12.1401559 4.85979335,12.1664585 C3.73635386,13.0467852 2.3212553,13.5715392 0.783062339,13.5715392 C0.518360636,13.5715392 0.256906806,13.5559524 0,13.5254284 C1.45309867,14.4570615 3.17836916,15 5.03193066,15 C11.0700526,15 14.3715161,9.99925064 14.3715161,5.6622371 C14.3715161,5.52000799 14.3685931,5.37810361 14.3624221,5.2371734 C15.0035524,4.7754159 15.5602379,4.19708248 16,3.53886696 C15.4118101,3.80026977 14.7787995,3.97659489 14.1146093,4.05550282 Z" id="icon-twitter"></path>
        </g>
    </g>
</svg>