<svg xmlns="http://www.w3.org/2000/svg" width="24" height="24" viewBox="0 0 24 24">
  <g fill="none" fill-rule="evenodd">
    <circle cx="12" cy="12" r="12" fill="#BE8BDB"/>
    <g fill="#FFFFFF" transform="translate(3 5)">
      <path d="M9.53523618 1.23688259L6.53523618 12.2368826C6.38992045 12.7697069 6.70405825 13.3194481 7.23688259 13.4647638 7.76970694 13.6100796 8.31944809 13.2959418 8.46476382 12.7631174L11.4647638 1.76311741C11.6100796 1.23029306 11.2959418.680551909 10.7631174.535236179 10.2302931.389920448 9.68055191.704058249 9.53523618 1.23688259L9.53523618 1.23688259zM3.7407434 2.84920863L.740743398 6.34920863C.419752201 6.72369836.419752201 7.27630164.740743398 7.65079137L3.7407434 11.1507914C4.10016555 11.5701172 4.73146553 11.6186788 5.15079137 11.2592566 5.57011722 10.8998345 5.61867875 10.2685345 5.2592566 9.84920863L2.2592566 6.34920863 2.2592566 7.65079137 5.2592566 4.15079137C5.61867875 3.73146553 5.57011722 3.10016555 5.15079137 2.7407434 4.73146553 2.38132125 4.10016555 2.42988278 3.7407434 2.84920863L3.7407434 2.84920863zM12.7407434 4.15079137L15.7407434 7.65079137 15.7407434 6.34920863 12.7407434 9.84920863C12.3813212 10.2685345 12.4298828 10.8998345 12.8492086 11.2592566 13.2685345 11.6186788 13.8998345 11.5701172 14.2592566 11.1507914L17.2592566 7.65079137C17.5802478 7.27630164 17.5802478 6.72369836 17.2592566 6.34920863L14.2592566 2.84920863C13.8998345 2.42988278 13.2685345 2.38132125 12.8492086 2.7407434 12.4298828 3.10016555 12.3813212 3.73146553 12.7407434 4.15079137L12.7407434 4.15079137z"/>
    </g>
  </g>
</svg>
