<svg xmlns="http://www.w3.org/2000/svg" width="12" height="12" viewBox="0 0 12 12">
  <path fill="#AAB1B5" fill-rule="evenodd" d="M5,3.41421356 L3.8721587,4.54205487 C3.48523583,4.92897773 2.85771305,4.92878086 2.46446609,4.53553391 C2.0739418,4.14500961 2.07624692,3.50953952 2.45794513,3.1278413 L5.29941418,0.286372258 C5.49180626,0.0939801747 5.74368521,-0.00269891122 5.99667045,-0.00293593011 C6.25826632,0.000591229632 6.5107963,0.0965827399 6.70058582,0.286372258 L9.54205487,3.1278413 C9.92897773,3.51476417 9.92878086,4.14228695 9.53553391,4.53553391 C9.14500961,4.9260582 8.50953952,4.92375308 8.1278413,4.54205487 L7,3.41421356 L7,8.00296986 C7,8.5536144 6.55613518,9 6,9 C5.44771525,9 5,8.54696369 5,8.00296986 L5,3.41421356 Z M10,10 L2,10 L2,9.0093689 C2,8.44335318 1.55228475,8 1,8 C0.443864822,8 0,8.45190985 0,9.0093689 L0,10.9906311 C0,11.5566468 0.44771525,12 1,12 L11,12 C11.5561352,12 12,11.5480902 12,10.9906311 L12,9.0093689 C12,8.44335318 11.5522847,8 11,8 C10.4438648,8 10,8.45190985 10,9.0093689 L10,10 Z"/>
</svg>
