<?xml version="1.0" encoding="UTF-8" standalone="no"?>
<svg width="16px" height="16px" viewBox="0 0 16 16" version="1.1" xmlns="http://www.w3.org/2000/svg" xmlns:xlink="http://www.w3.org/1999/xlink">
    <!-- Generator: Sketch 3.8.2 (29753) - http://www.bohemiancoding.com/sketch -->
    <title>iconNotifComment16</title>
    <desc>Created with Sketch.</desc>
    <defs></defs>
    <g id="Assets" stroke="none" stroke-width="1" fill="none" fill-rule="evenodd">
        <g id="iconNotifComment16" fill="#AAB1B5">
            <path d="M8,1 C3.63662631,1 0,3.67192243 0,7.14285714 C0,9.27998686 1.40038442,11.1813394 3.61854647,12.2911643 L4.066,11.3968571 L3.066,11.3968571 C3.07243818,11.2758204 3.07243818,11.2758204 3.07967304,11.2374432 C3.07978205,11.2368265 3.07978205,11.2368265 3.07964653,11.2375901 C3.07046297,11.2852386 3.07046297,11.2852386 3.0625,11.4285714 C3.0625,11.4655989 3.05850985,11.5083327 3.05000892,11.5565412 C3.01255902,11.7689183 2.89909339,12.0371325 2.71256922,12.3640461 C2.63304971,12.5034169 2.36734035,12.9339401 2.35907151,12.9478712 C1.9634118,13.6144648 2.44382671,14.4582857 3.219,14.4582857 L3.219875,14.4582857 L3.219875,13.4582857 L2.303272,13.0584871 C2.22790062,13.2312882 2.1875,13.4189808 2.1875,13.6117143 C2.1875,14.3829261 2.81694947,15 3.583875,15 C3.6621329,14.998122 3.6621329,14.998122 3.70607114,14.9946377 C3.72061473,14.9934332 3.72061473,14.9934332 3.73221044,14.9924012 C3.75606325,14.9902661 3.75606325,14.9902661 3.74482362,14.991106 C3.72628804,14.9925935 3.72628804,14.9925935 3.65066441,14.9919938 C3.58745723,14.9903984 3.58745723,14.9903984 3.40690342,14.9509017 C3.26046159,14.9067773 3.26046159,14.9067773 2.9833037,14.6956881 C2.67005012,14.2294405 2.67005012,14.2294405 2.75794601,13.6459918 C2.49144155,14.3639222 3.09778304,15.102719 3.85390581,14.9813641 C5.22598872,14.7611498 6.65249825,13.7400138 7.41586544,12.8304234 L6.649875,12.1875714 L6.5072054,13.1773418 C7.00353849,13.2488853 7.50111457,13.2857143 8,13.2857143 C12.3627901,13.2857143 16,10.6135938 16,7.14285714 C16,3.67202148 12.3630819,1 8,1 L8,1 Z M8,3 C11.3684181,3 14,4.93340709 14,7.14285714 C14,9.35218423 11.3681371,11.2857143 8,11.2857143 C7.59818125,11.2857143 7.1958479,11.2559349 6.7925446,11.1978011 C6.45003473,11.1484303 6.10634337,11.2796486 5.88388456,11.5447195 C5.72942627,11.7287643 5.37283947,12.055789 4.99106431,12.3290745 C4.48070089,12.6944071 3.97399935,12.9364942 3.53696919,13.0066359 L3.6954375,13.994 L4.63292899,14.3420082 C4.72091793,13.7580588 4.72091793,13.7580588 4.40736557,13.2913919 C4.12971826,13.0799228 4.12971826,13.0799228 3.98241624,13.0354944 C3.79960171,12.9955002 3.79960171,12.9955002 3.73277725,12.9936801 C3.64801066,12.9930089 3.64801066,12.9930089 3.61591751,12.9952645 C3.57195254,12.9986482 3.57195254,12.9986482 3.55351514,13.0004002 C3.54821409,13.0008701 3.54821409,13.0008701 3.54554977,13.0010899 C3.54483404,13.0009403 3.54483404,13.0009403 3.583875,13 C3.91272764,13 4.1875,13.2693701 4.1875,13.6117143 C4.1875,13.6986118 4.16944046,13.7825126 4.136478,13.8580843 C4.42460165,13.1975143 3.94054695,12.4582857 3.219875,12.4582857 L3.219,12.4582857 L3.219,13.4582857 L4.07892849,13.9687002 C4.07105852,13.9819593 4.34954133,13.5307395 4.44970434,13.3551877 C4.74018799,12.8460683 4.93444822,12.386869 5.01962112,11.9038563 C5.04771271,11.7445499 5.0625,11.5861804 5.0625,11.4285714 C5.05541203,11.5544399 5.05541203,11.5544399 5.04885347,11.5871956 C5.04898045,11.5864817 5.04898045,11.5864817 5.04935021,11.5843896 C5.05885307,11.5327342 5.05885307,11.5327342 5.066,11.3968571 C5.066,11.0181817 4.85210568,10.6719896 4.51345353,10.50255 C2.92489462,9.70773772 2,8.4519749 2,7.14285714 C2,4.93328411 4.63130088,3 8,3 L8,3 Z" id="Path"></path>
        </g>
    </g>
</svg>