<?xml version="1.0" encoding="UTF-8" standalone="no"?>
<svg width="20px" height="20px" viewBox="0 0 20 20" version="1.1" xmlns="http://www.w3.org/2000/svg" xmlns:xlink="http://www.w3.org/1999/xlink">
    <!-- Generator: Sketch 3.6.1 (26313) - http://www.bohemiancoding.com/sketch -->
    <title>iconClock20</title>
    <desc>Created with Sketch.</desc>
    <defs></defs>
    <g id="Assets" stroke="none" stroke-width="1" fill="none" fill-rule="evenodd">
        <g id="iconClock20" fill="#D5D8DA">
            <g id="icon-clock">
                <path d="M10,20 C4.4771525,20 0,15.5228475 0,10 C0,4.4771525 4.4771525,0 10,0 C15.5228475,0 20,4.4771525 20,10 C20,15.5228475 15.5228475,20 10,20 Z M10,18 C14.418278,18 18,14.418278 18,10 C18,5.581722 14.418278,2 10,2 C5.581722,2 2,5.581722 2,10 C2,14.418278 5.581722,18 10,18 Z" id="Oval-17"></path>
                <rect id="Rectangle-78" x="9" y="3" width="2" height="8" rx="3"></rect>
                <rect id="Rectangle-78" transform="translate(8.700962, 10.750000) rotate(-120.000000) translate(-8.700962, -10.750000) " x="7.70096189" y="8.25" width="2" height="5" rx="3"></rect>
            </g>
        </g>
    </g>
</svg>