<svg xmlns="http://www.w3.org/2000/svg" width="20" height="20" viewBox="0 0 20 20">
  <path fill="#FCA567" d="M9.06931775,13.6819351 L10,13.1926465 L10.9306823,13.6819351 L13.2186831,14.8693856 L12.7840659,12.3353731 L12.6063214,11.2990431 L13.3592592,10.5651102 L15.2268235,8.7605682 L12.6513296,8.38632703 L11.6107952,8.23512853 L11.1454541,7.29224442 L10.0116276,4.94774076 L8.85454589,7.29224442 L8.38920476,8.23512853 L7.34867037,8.38632703 L4.79413288,8.76511236 L6.6407408,10.5651102 L7.39367856,11.2990431 L7.21593407,12.3353731 L6.77741228,14.8921513 L9.06931775,13.6819351 Z M5.88569705,17.615215 C4.91171551,18.1272674 4.27354225,17.6596686 4.45895547,16.5786266 L5.24471742,11.9972829 L1.91617641,8.75275734 C1.1282088,7.98467875 1.3757153,7.23324394 2.4611432,7.07552203 L7.06107374,6.407113 L9.11822522,2.23886883 C9.60521598,1.25211776 10.3963567,1.25530431 10.8817748,2.23886883 L12.9389263,6.407113 L17.5388568,7.07552203 C18.6278013,7.23375492 18.8692466,7.98715913 18.0838236,8.75275734 L14.7552826,11.9972829 L15.5410445,16.5786266 C15.7270584,17.663171 15.0851392,18.1256138 14.114303,17.615215 L10,15.452198 L5.88569705,17.615215 Z"/>
</svg>
