<svg xmlns="http://www.w3.org/2000/svg" width="20" height="20" viewBox="0 0 20 20">
  <g fill="#D5D8DA" fill-rule="evenodd">
    <path d="M4,17.9941413 C4,18.0012361 16.0092049,18 16.0092049,18 C15.9972918,18 16,2.00585866 16,2.00585866 C16,1.99876385 3.99079514,2 3.99079514,2 C4.00270816,2 4,17.9941413 4,17.9941413 Z M3.99079514,0 L16.0092049,0 C17.1086907,0 18,0.897060126 18,2.00585866 L18,17.9941413 C18,19.1019465 17.1017876,20 16.0092049,20 L3.99079514,20 C2.89130934,20 2,19.1029399 2,17.9941413 L2,2.00585866 C2,0.898053512 2.89821238,0 3.99079514,0 Z"/>
    <rect width="8" height="2" x="6" y="5" rx="1"/>
    <rect width="8" height="2" x="6" y="9" rx="1"/>
    <rect width="8" height="2" x="6" y="13" rx="1"/>
  </g>
</svg>
