<svg xmlns="http://www.w3.org/2000/svg" width="20" height="20" viewBox="0 0 20 20">
  <path fill="#AAB1B5" fill-rule="evenodd" d="M3.41421356,9 L19.0081969,9 C19.5559546,9 20,9.44386482 20,10 C20,10.5522847 19.5446944,11 19.0081969,11 L3.41421356,11 L7.36721544,14.9530019 C7.75594237,15.3417288 7.75720799,15.9707141 7.36396103,16.363961 C6.97343674,16.7544853 6.33465086,16.7488644 5.95300188,16.3672154 L0.346397777,10.7606113 C0.241916713,10.6705525 0.15630054,10.5588513 0.0963236802,10.4321085 C-0.0589217308,10.1102241 -0.0306010384,9.72203845 0.183572052,9.42188825 C0.214912839,9.37760903 0.250275782,9.33551066 0.289638808,9.29614763 L5.95300188,3.63278456 C6.34172881,3.24405763 6.97071408,3.24279201 7.36396103,3.63603897 C7.75448532,4.02656326 7.74886443,4.66534914 7.36721544,5.04699812 L3.41421356,9 Z"/>
</svg>
