<?xml version="1.0" encoding="UTF-8" standalone="no"?>
<svg width="16px" height="16px" viewBox="0 0 16 16" version="1.1" xmlns="http://www.w3.org/2000/svg" xmlns:xlink="http://www.w3.org/1999/xlink">
    <!-- Generator: Sketch 3.8.1 (29687) - http://www.bohemiancoding.com/sketch -->
    <title>iconLinkedIn16White</title>
    <desc>Created with Sketch.</desc>
    <defs></defs>
    <g id="Assets" stroke="none" stroke-width="1" fill="none" fill-rule="evenodd">
        <g id="iconLinkedIn16White" fill="#FFFFFF">
            <path d="M16,15 C16,15.552 15.552,16 15,16 L1,16 C0.448,16 0,15.552 0,15 L0,1 C0,0.448 0.448,0 1,0 L15,0 C15.552,0 16,0.448 16,1 L16,15 Z M3.5,5.5 L5.5,5.5 L5.5,12.5 L3.5,12.5 L3.5,5.5 Z M10.2495,5.5 C8.854,5.5 8.614,6.009 8.5,6.5 L8.5,5.5 L6.5,5.5 L6.5,12.5 L8.5,12.5 L8.5,8.5 C8.5,7.8515 8.8515,7.5 9.5,7.5 C10.133,7.5 10.5,7.844 10.5,8.5 L10.5,12.5 L12.5,12.5 L12.5,9 C12.5,7 12.2395,5.5 10.2495,5.5 Z M4.5,5 C5.05228475,5 5.5,4.55228475 5.5,4 C5.5,3.44771525 5.05228475,3 4.5,3 C3.94771525,3 3.5,3.44771525 3.5,4 C3.5,4.55228475 3.94771525,5 4.5,5 Z" id="Combined-Shape"></path>
        </g>
    </g>
</svg>