<?xml version="1.0" encoding="UTF-8" standalone="no"?>
<svg width="16px" height="16px" viewBox="0 0 16 16" version="1.1" xmlns="http://www.w3.org/2000/svg" xmlns:xlink="http://www.w3.org/1999/xlink">
    <!-- Generator: Sketch 3.8.1 (29687) - http://www.bohemiancoding.com/sketch -->
    <title>iconFacebook16White</title>
    <desc>Created with Sketch.</desc>
    <defs></defs>
    <g id="Assets" stroke="none" stroke-width="1" fill="none" fill-rule="evenodd">
        <g id="iconFacebook16White" fill="#FFFFFF">
            <path d="M16,15 C16,15.552 15.552,16 15,16 L1,16 C0.448,16 0,15.552 0,15 L0,1 C0,0.448 0.448,0 1,0 L15,0 C15.552,0 16,0.448 16,1 L16,15 Z M11,16 L11,10 L13,10 L13.5,7.5 L11,7.5 L11,6.5 C11,5.5 11.501,5 12.5,5 L13.5,5 L13.5,2.5 L11.5,2.5 C9.6625,2.5 8.5,3.9405 8.5,6 L8.5,7.5 L6.5,7.5 L6.5,10 L8.5,10 L8.5,16 L11,16 Z" id="icon-facebook"></path>
        </g>
    </g>
</svg>