<svg xmlns="http://www.w3.org/2000/svg" width="32" height="25" viewBox="0 0 32 25">
  <path fill="#F5F7F9" fill-rule="evenodd" d="M8.8817842e-16,16.1458333 C8.8817842e-16,21.7881944 3.62264151,25 7.67654987,25 C11.3854447,25 14.490566,21.875 14.490566,18.1423611 C14.490566,14.4097222 11.902965,11.8923611 8.62533693,11.8923611 C7.93530997,11.8923611 7.24528302,11.9791667 6.90026954,12.1527778 C7.67654987,9.02777778 10.8679245,5.38194444 13.6280323,3.90625 L8.88409704,0 C3.53638814,3.81944444 8.8817842e-16,9.63541667 8.8817842e-16,16.1458333 Z M17.5956873,16.1458333 C17.5956873,21.7881944 21.2183288,25 25.2722372,25 C28.9811321,25 32,21.875 32,18.1423611 C32,14.4097222 29.4986523,11.8923611 26.2210243,11.8923611 C25.5309973,11.8923611 24.754717,11.9791667 24.4959569,12.1527778 C25.1859838,9.02777778 28.4636119,5.38194444 31.2237197,3.90625 L26.4797844,0 C21.1320755,3.81944444 17.5956873,9.63541667 17.5956873,16.1458333 Z"/>
</svg>
