<?xml version="1.0" encoding="UTF-8" standalone="no"?>
<svg width="20px" height="20px" viewBox="0 0 20 20" version="1.1" xmlns="http://www.w3.org/2000/svg" xmlns:xlink="http://www.w3.org/1999/xlink">
    <!-- Generator: Sketch 3.7.2 (28276) - http://www.bohemiancoding.com/sketch -->
    <title>iconResult20</title>
    <desc>Created with Sketch.</desc>
    <defs></defs>
    <g id="Assets" stroke="none" stroke-width="1" fill="none" fill-rule="evenodd">
        <g id="iconResult20" fill="#AAB1B5">
            <g id="icon-document">
                <g id="Combined-Shape">
                    <path d="M15,3.58578644 L10.5180432,8.06774324 C10.3528166,8.02355725 10.1791593,8 10,8 C8.8954305,8 8,8.8954305 8,10 C8,11.1045695 8.8954305,12 10,12 C11.1045695,12 12,11.1045695 12,10 C12,9.82084067 11.9764427,9.64718343 11.9322568,9.4819568 L16.4142136,5 L19.0001925,5 C19.5562834,5 20,4.55228475 20,4 C20,3.44386482 19.5523709,3 19.0001925,3 L17,3 L17,0.999807492 C17,0.443716645 16.5522847,0 16,0 C15.4438648,0 15,0.447629061 15,0.999807492 L15,3.58578644 Z M13,0.457802284 C12.0529588,0.160353828 11.0452057,0 10,0 C4.4771525,0 0,4.4771525 0,10 C0,15.5228475 4.4771525,20 10,20 C15.5228475,20 20,15.5228475 20,10 C20,8.95479429 19.8396462,7.94704122 19.5421977,7 L17.4184842,7 C17.7934929,7.92643144 18,8.93909956 18,10 C18,14.418278 14.418278,18 10,18 C5.581722,18 2,14.418278 2,10 C2,5.581722 5.581722,2 10,2 C11.0609004,2 12.0735686,2.20650713 13,2.58151705 L13,0.457802284 Z M11.5541296,4.20322972 C11.0584497,4.07067176 10.537478,4 10,4 C6.6862915,4 4,6.6862915 4,10 C4,13.3137085 6.6862915,16 10,16 C13.3137085,16 16,13.3137085 16,10 C16,9.46252201 15.9293282,8.9415503 15.7967703,8.44587041 L13.9922931,10.2503476 C13.8630729,12.342866 12.1250587,14 10,14 C7.790861,14 6,12.209139 6,10 C6,7.87494135 7.65713403,6.13692709 9.74965236,6.00770695 L11.5541296,4.20322972 Z"></path>
                </g>
            </g>
        </g>
    </g>
</svg>