<?xml version="1.0" encoding="UTF-8" standalone="no"?>
<svg width="43px" height="20px" viewBox="0 0 43 20" version="1.1" xmlns="http://www.w3.org/2000/svg" xmlns:xlink="http://www.w3.org/1999/xlink">
    <!-- Generator: Sketch 3.7.2 (28276) - http://www.bohemiancoding.com/sketch -->
    <title>loginedX</title>
    <desc>Created with Sketch.</desc>
    <defs></defs>
    <g id="Home" stroke="none" stroke-width="1" fill="none" fill-rule="evenodd">
        <g id="notifications" transform="translate(-400.000000, -527.000000)">
            <g id="loginedX" transform="translate(400.000000, 527.000000)">
                <g id="Group-3" transform="translate(26.476625, 0.000000)" fill="#2B94C5">
                    <path d="M15.0394584,16.7528977 L16.5116078,16.7528977 L16.5116078,20 L8.66177879,20 L8.66177879,16.7528977 L15.0394584,16.7528977 Z M9.45607754,9.83082614 L15.0394584,16.7528977 L10.6612543,16.7528977 L8.66177879,14.2742293 L8.66177879,10.8165228 L9.45607754,9.83082614 Z M8.66177879,3.16892725 L16.5116078,3.16892725 L16.5116078,0.000493218249 L8.66177879,0.000493218249 L8.66177879,3.16892725 Z M14.8242132,3.16892725 L9.45607754,9.83082614 L8.66177879,8.84611591 L8.66177879,5.38273736 L10.445764,3.16892725 L14.8242132,3.16892725 Z M9.45607754,9.83082614 L8.66177879,10.8165228 L8.66177879,8.84611591 L9.45607754,9.83082614 Z M8.66177879,10.8165228 L8.66177879,14.2742293 L7.26807868,12.5462392 L8.66177879,10.8165228 Z M8.66177879,8.84611591 L8.66177879,10.8165228 L7.26807868,12.5462392 L7.26783352,12.5462392 L5.87388826,10.8180025 L5.87388826,8.84241677 L7.26562714,7.11541307 L8.66177879,8.84611591 Z M8.66177879,5.38273736 L8.66177879,8.84611591 L7.26562714,7.11541307 L8.66177879,5.38273736 Z M5.87388826,10.8180025 L7.26783352,12.5462392 L5.87388826,14.2762022 L5.87388826,10.8180025 Z M5.87388826,5.38988903 L7.26562714,7.11541307 L5.87388826,8.84241677 L5.87388826,5.38988903 Z M3.87809008,16.7528977 L5.87388826,16.7528977 L5.87388826,20 L2.42604333,20 L2.42604333,16.7528977 L3.87809008,16.7528977 Z M5.87388826,10.8180025 L5.87388826,14.2762022 L3.87833523,16.7528977 L0.00956100342,16.7528977 L0.00956100342,16.1200986 L5.07762828,9.83082614 L5.87388826,10.8180025 Z M5.87388826,8.84241677 L5.87388826,10.8180025 L5.07762828,9.83082614 L5.87388826,8.84241677 Z M5.87388826,5.38988903 L5.87388826,8.84241677 L5.07762828,9.83082614 L0.00956100342,3.54796547 L0.00956100342,3.16892725 L4.08230331,3.16892725 L5.87388826,5.38988903 Z M0.00956100342,3.16892725 L5.87388826,3.16892725 L5.87388826,0.000493218249 L0.00956100342,0.000493218249 L0.00956100342,3.16892725 Z" id="Combined-Shape"></path>
                </g>
                <g id="Group-15" transform="translate(26.476625, 0.000000)"></g>
                <g id="Group-23" transform="translate(24.441847, 16.103576)" fill="#1A6191">
                    <path d="M2.04433865,3.89494451 L4.46082098,3.89494451 L4.46082098,0.649321825 L2.04433865,0.649321825 L2.04433865,3.89494451 Z M1.53441847,0.649321825 L2.04433865,0.649321825 L2.04433865,3.89642417 L0.022309008,3.89642417 L0.022309008,1.4702836 C0.256431015,1.21282367 0.4736374,0.938594328 0.671476625,0.649321825 L1.53441847,0.649321825 Z M0.022309008,0.649321825 L0.671476625,0.649321825 C0.4736374,0.938594328 0.256431015,1.21282367 0.022309008,1.4702836 L0.022309008,0.649321825 Z M2.04433865,0.0165228113 L2.04433865,0.649321825 L1.53441847,0.649321825 L2.04433865,0.0165228113 Z" id="Combined-Shape"></path>
                </g>
                <path d="M26.4861859,12.2749692 L26.4861859,16.1200986 L25.9762657,16.7528977 L25.1133238,16.7528977 C25.9782269,15.4902589 26.4812828,13.9447596 26.4861859,12.2749692 Z M26.4861859,12.2503083 L26.4861859,12.2749692 C26.4812828,13.9447596 25.9782269,15.4902589 25.1133238,16.7528977 L24.4641562,16.7528977 L24.4641562,6.92675709 C25.726699,8.31467324 26.4861859,10.1884094 26.4861859,12.2503083 Z M26.4861859,3.54796547 L26.4861859,12.2503083 C26.4861859,10.1884094 25.726699,8.31467324 24.4641562,6.92675709 L24.4641562,3.16892725 L26.1804789,3.16892725 L26.4861859,3.54796547 Z M24.4641562,17.5738594 L24.4641562,20 L23.3163455,20 L23.3163455,18.6004932 C23.7333769,18.2988903 24.1175331,17.9546239 24.4641562,17.5738594 Z M24.4641562,16.7528977 L24.4641562,17.5738594 C24.1175331,17.9546239 23.7333769,18.2988903 23.3163455,18.6004932 L23.3163455,5.9001233 C23.7333769,6.20172626 24.1175331,6.5459926 24.4641562,6.92675709 L24.4641562,16.7528977 Z M23.3163455,12.2749692 L23.3163455,18.6004932 C22.0989111,19.481381 20.6034721,19.9982737 18.961431,19.9982737 C16.7141049,19.9982737 14.6913398,19.0300863 13.2836659,17.4855734 C13.8558552,16.8369914 14.3196864,16.0865598 14.6503991,15.2636252 C14.7673375,14.9731196 14.8676055,14.6734895 14.9502223,14.3659679 C15.704561,15.7975339 17.2012258,16.7726264 18.9244128,16.7726264 C21.3992417,16.7726264 23.3038426,14.7612824 23.3163455,12.2749692 Z M14.9502223,14.3659679 C14.8676055,14.6734895 14.7673375,14.9731196 14.6503991,15.2636252 L11.863244,15.2636252 C11.7428734,14.9768187 11.6389282,14.6811344 11.5533694,14.3778052 C11.6935975,14.1025894 11.8071038,13.8103576 11.8902109,13.5048089 L14.604065,13.5048089 C14.6903592,13.8059186 14.8068073,14.0942047 14.9502223,14.3659679 Z M11.3596978,13.5048089 L11.8902109,13.5048089 C11.8071038,13.8103576 11.6935975,14.1025894 11.5533694,14.3778052 C11.4724686,14.0932182 11.407748,13.8019729 11.3596978,13.5048089 Z M24.4641562,3.16892725 L24.4641562,6.92675709 C24.1175331,6.5459926 23.7333769,6.20172626 23.3163455,5.9001233 L23.3163455,3.16892725 L24.4641562,3.16892725 Z M23.3163455,5.9001233 L23.3163455,12.2503083 C23.3163455,9.75265105 21.4073318,7.72799014 18.9244128,7.72799014 C17.2012258,7.72799014 15.704561,8.70308261 14.9502223,10.1346486 C14.6337286,8.95659679 14.0576169,7.89272503 13.2836659,7.01504316 C14.6913398,5.47053021 16.7141049,4.50234279 18.961431,4.50234279 C20.6034721,4.50234279 22.0989111,5.01923551 23.3163455,5.9001233 Z M23.3163455,3.16892725 L24.4641562,3.16892725 L24.4641562,0.000493218249 L23.3163455,0.000493218249 L23.3163455,3.16892725 Z M21.2224857,3.16892725 L23.3163455,3.16892725 L23.3163455,0.000493218249 L21.2224857,0.000493218249 L21.2224857,3.16892725 Z" id="Combined-Shape" fill="#828584"></path>
                <path d="M26.4861859,3.16892725 L26.4861859,3.54796547 L26.1804789,3.16892725 L26.4861859,3.16892725 Z M26.1804789,3.16892725 L24.4641562,3.16892725 L24.4641562,0.000493218249 L26.4861859,0.000493218249 L26.4861859,3.16892725 L26.1804789,3.16892725 Z" id="Combined-Shape" fill="#1A6191"></path>
                <g id="Group-33" transform="translate(11.350627, 3.156597)"></g>
                <path d="M15.2270011,12.2503083 C15.2270011,12.6774353 15.1943957,13.0964242 15.1313911,13.5048089 L14.604065,13.5048089 C14.4898233,13.1065351 14.4287799,12.6855734 14.4287799,12.2503083 C14.4287799,11.7881628 14.4976682,11.3420469 14.6261288,10.9220715 L15.1196237,10.9220715 C15.1904732,11.3536375 15.2270011,11.7975339 15.2270011,12.2503083 Z M15.1196237,10.9220715 L14.6261288,10.9220715 C14.7094812,10.6475956 14.8185747,10.384217 14.9502223,10.1346486 C15.0193558,10.3918619 15.0759863,10.6547472 15.1196237,10.9220715 Z" id="Combined-Shape" fill="#A6295C"></path>
                <path d="M11.863244,15.2636252 L14.6503991,15.2636252 C14.3196864,16.0865598 13.8558552,16.8369914 13.2836659,17.4855734 C12.6918643,16.8369914 12.2089111,16.0865598 11.863244,15.2636252" id="Fill-43" fill="#63212A"></path>
                <path d="M12.0147185,12.8914303 C11.9865564,13.1008631 11.9447577,13.305672 11.8902109,13.5048089 L14.604065,13.5048089 C14.4898233,13.1065351 14.4287799,12.6855734 14.4287799,12.2503083 C14.4287799,11.7881628 14.4976682,11.3420469 14.6261288,10.9220715 L11.869618,10.9220715 C11.9307839,11.1320592 11.9777309,11.348582 12.0093864,11.5703761 C11.9777309,11.348582 11.9307839,11.1320592 11.869618,10.9220715 L11.3722007,10.9220715 C11.297919,11.3536375 11.2591847,11.7975339 11.2591847,12.2503083 C11.2591847,12.6774353 11.2935063,13.0964242 11.3596978,13.5048089 L11.8902109,13.5048089 C11.9447577,13.305672 11.9865564,13.1008631 12.0147185,12.8914303 Z M14.9502223,10.1346486 C14.8185747,10.384217 14.7094812,10.6475956 14.6261288,10.9220715 L11.869618,10.9220715 C11.7884721,10.6431566 11.6823204,10.3758323 11.5533694,10.1228113 C11.885553,8.94944513 12.485935,7.88976572 13.2836659,7.01504316 C14.0576169,7.89272503 14.6337286,8.95659679 14.9502223,10.1346486 Z" id="Combined-Shape" fill="#63212A"></path>
                <path d="M3.21464225,12.8914303 C3.2441833,13.1008631 3.28800456,13.305672 3.34512543,13.5048089 L11.3596978,13.5048089 C11.2935063,13.0964242 11.2591847,12.6774353 11.2591847,12.2503083 C11.2591847,11.7975339 11.297919,11.3536375 11.3722007,10.9220715 L3.36718928,10.9220715 C3.30295895,11.1320592 3.25362172,11.348582 3.22034208,11.5703761 C3.25362172,11.348582 3.30295895,11.1320592 3.36718928,10.9220715 L0.113015964,10.9220715 C0.0387343216,11.3536375 9.44853183e-16,11.7975339 9.44853183e-16,12.2503083 C9.44853183e-16,12.6774353 0.0343215507,13.0964242 0.100513113,13.5048089 L3.34512543,13.5048089 C3.28800456,13.305672 3.2441833,13.1008631 3.21464225,12.8914303 Z M7.70249145,4.50234279 C9.94981756,4.50234279 11.9228164,5.47053021 13.2836659,7.01504316 C12.485935,7.88976572 11.885553,8.94944513 11.5533694,10.1228113 C10.8272235,8.69765721 9.38375713,7.72799014 7.6654732,7.72799014 C5.64197263,7.72799014 3.93079818,9.07274969 3.36718928,10.9220715 L0.113015964,10.9220715 C0.738893957,7.275709 3.89868301,4.50234279 7.70249145,4.50234279 Z M13.2836659,17.4855734 C11.9228164,19.0300863 9.94981756,19.9982737 7.70249145,19.9982737 C3.873187,19.9982737 0.696482326,17.1874229 0.100513113,13.5048089 L3.34512543,13.5048089 C3.88568985,15.3921085 5.61525086,16.7726264 7.6654732,16.7726264 C8.99763968,16.7726264 10.1648176,16.1896424 10.9600969,15.2636252 L11.863244,15.2636252 C12.2089111,16.0865598 12.6918643,16.8369914 13.2836659,17.4855734 Z" id="Combined-Shape" fill="#A6295C"></path>
                <path id="Fill-50" fill="#828584"></path>
                <g id="Group-54" transform="translate(0.000000, 10.900123)"></g>
            </g>
        </g>
    </g>
</svg>