<?xml version="1.0" encoding="UTF-8" standalone="no"?>
<svg width="19px" height="20px" viewBox="0 0 19 20" version="1.1" xmlns="http://www.w3.org/2000/svg" xmlns:xlink="http://www.w3.org/1999/xlink">
    <!-- Generator: Sketch 3.7.2 (28276) - http://www.bohemiancoding.com/sketch -->
    <title>loginGoogle</title>
    <desc>Created with Sketch.</desc>
    <defs></defs>
    <g id="Home" stroke="none" stroke-width="1" fill="none" fill-rule="evenodd">
        <g id="notifications" transform="translate(-262.000000, -523.000000)">
            <g id="loginGoogle" transform="translate(262.000000, 523.000000)">
                <g id="Group">
                    <path d="M6.53579235,0.54691689 C4.18415301,1.37801609 2.18032787,3.19571046 1.06420765,5.49597855 C0.674863388,6.28954424 0.394535519,7.13136729 0.223224044,8.00536193 C-0.202459016,10.1715818 0.093442623,12.4825737 1.05901639,14.4557641 C1.68715847,15.7426273 2.59043716,16.8900804 3.68060109,17.7855228 C4.7136612,18.6327078 5.91284153,19.2654155 7.18989071,19.613941 C8.79918033,20.0589812 10.5122951,20.0482574 12.1319672,19.6675603 C13.5959016,19.3190349 14.9819672,18.5951743 16.0877049,17.5442359 C17.2557377,16.4343164 18.0915301,14.9758713 18.5327869,13.4048257 C19.0155738,11.69437 19.0778689,9.86595174 18.776776,8.10723861 L9.6920765,8.10723861 L9.6920765,12 L14.9560109,12 C14.7535519,13.2439678 14.0371585,14.3806971 13.0248634,15.0831099 C12.3863388,15.5281501 11.6543716,15.8123324 10.8964481,15.9517426 C10.1385246,16.0857909 9.34945355,16.1018767 8.59153005,15.9463807 C7.81803279,15.7855228 7.08606557,15.4530831 6.44234973,14.9865952 C5.41448087,14.2412869 4.63060109,13.152815 4.23087432,11.924933 C3.82076503,10.6756032 3.81557377,9.28686327 4.23087432,8.04289544 C4.5215847,7.16353887 4.99918033,6.3538874 5.63251366,5.68900804 C6.41120219,4.86327078 7.42349727,4.27345845 8.51885246,4.03217158 C9.45327869,3.82841823 10.4396175,3.86595174 11.3532787,4.15013405 C12.1319672,4.39142091 12.8483607,4.83646113 13.4349727,5.4155496 C14.026776,4.80428954 14.6185792,4.19302949 15.2103825,3.58176944 C15.5218579,3.25469169 15.8489071,2.9383378 16.15,2.60053619 C15.2519126,1.74262735 14.1928962,1.05093834 13.0404372,0.611260054 C10.9639344,-0.18230563 8.62786885,-0.198391421 6.53579235,0.54691689 L6.53579235,0.54691689 Z" id="Shape" fill="#FFFFFF"></path>
                    <path d="M6.53579235,0.54691689 C8.6226776,-0.198391421 10.9639344,-0.18230563 13.0404372,0.605898123 C14.1928962,1.04557641 15.2467213,1.73190349 16.15,2.59517426 C15.8489071,2.93297587 15.5218579,3.24932976 15.2103825,3.57640751 C14.6185792,4.18766756 14.026776,4.79892761 13.4349727,5.41018767 C12.8483607,4.8310992 12.1319672,4.39142091 11.3532787,4.14477212 C10.4396175,3.86058981 9.45327869,3.81769437 8.51885246,4.02680965 C7.42868852,4.26809651 6.41639344,4.85790885 5.63251366,5.68364611 C4.99918033,6.34316354 4.5215847,7.15817694 4.23087432,8.03753351 C3.17704918,7.19034853 2.12322404,6.34852547 1.06420765,5.50134048 C2.18032787,3.19571046 4.18415301,1.37801609 6.53579235,0.54691689 L6.53579235,0.54691689 Z" id="Shape" fill="#EA4335"></path>
                    <path d="M0.228415301,8 C0.399726776,7.13136729 0.680054645,6.28418231 1.06939891,5.49061662 C2.12322404,6.33780161 3.17704918,7.17962466 4.23606557,8.02680965 C3.82076503,9.27613941 3.82076503,10.6648794 4.23606557,11.9088472 C3.18224044,12.7560322 2.1284153,13.6032172 1.07459016,14.4450402 C0.0986338798,12.4772118 -0.19726776,10.1662198 0.228415301,8 L0.228415301,8 Z" id="Shape" fill="#FBBC05"></path>
                    <path d="M9.6920765,8.10187668 L18.776776,8.10187668 C19.0778689,9.85522788 19.0103825,11.6836461 18.5327869,13.3994638 C18.0915301,14.9705094 17.2557377,16.4289544 16.0877049,17.538874 C15.0650273,16.7184987 14.0423497,15.8981233 13.0196721,15.077748 C14.0319672,14.3753351 14.7483607,13.2386059 14.9508197,11.9946381 L9.68688525,11.9946381 C9.6920765,10.6970509 9.6920765,9.39946381 9.6920765,8.10187668 L9.6920765,8.10187668 Z" id="Shape" fill="#4285F4"></path>
                    <path d="M1.06420765,14.4504021 C2.11803279,13.6085791 3.17185792,12.7613941 4.22568306,11.9142091 C4.63060109,13.1420912 5.40928962,14.230563 6.43715847,14.9758713 C7.08087432,15.4423592 7.81803279,15.7747989 8.5863388,15.9356568 C9.3442623,16.0965147 10.1281421,16.075067 10.8912568,15.9410188 C11.6491803,15.8016086 12.3811475,15.5174263 13.0196721,15.0723861 C14.0423497,15.8927614 15.0650273,16.7131367 16.0877049,17.5335121 C14.9819672,18.5898123 13.5959016,19.308311 12.1319672,19.6568365 C10.5122951,20.0375335 8.79918033,20.0482574 7.18989071,19.6032172 C5.91284153,19.2546917 4.7136612,18.6273458 3.68060109,17.7747989 C2.59562842,16.8847185 1.69234973,15.7372654 1.06420765,14.4504021 L1.06420765,14.4504021 Z" id="Shape" fill="#34A853"></path>
                </g>
            </g>
        </g>
    </g>
</svg>