<svg xmlns="http://www.w3.org/2000/svg" width="86" height="30" viewBox="0 0 86 30">
  <g fill="none" fill-rule="evenodd">
    <path fill="#FFFFFF" d="M55.704,29 L53.87,24.331 L52.848,24.331 L51.014,29 L51.945,29 L52.288,28.097 L54.43,28.097 L54.773,29 L55.704,29 Z M54.199,27.376 L52.519,27.376 L53.359,25.15 L54.199,27.376 Z M60.8510001,29 C62.3070001,29 63.2870001,28.041 63.2870001,26.662 C63.2870001,25.297 62.3070001,24.331 60.8440001,24.331 L59.1080001,24.331 L59.1080001,29 L60.8510001,29 Z M60.8440001,28.279 L59.9270001,28.279 L59.9270001,25.052 L60.8510001,25.052 C61.8870001,25.052 62.4470001,25.766 62.4470001,26.662 C62.4470001,27.551 61.8590001,28.279 60.8440001,28.279 L60.8440001,28.279 Z M71.8290002,29 L71.8290002,24.331 L70.6740002,24.331 L69.4070002,27.537 L68.1330002,24.331 L66.9780002,24.331 L66.9780002,29 L67.7970002,29 L67.7970002,25.395 L69.2320002,29 L69.5820002,29 L71.0100002,25.395 L71.0100002,29 L71.8290002,29 Z M76.5420003,29 L76.5420003,24.331 L75.7230003,24.331 L75.7230003,29 L76.5420003,29 Z M84.4820004,29 L84.4820004,24.331 L83.6630004,24.331 L83.6630004,27.565 L81.2760004,24.331 L80.4360004,24.331 L80.4360004,29 L81.2550004,29 L81.2550004,25.661 L83.6910004,29 L84.4820004,29 Z"/>
    <path fill="#FEFEFE" d="M7.34346444 22.2681882C10.5560502 22.2681882 12.8877657 19.8479473 12.8877657 15.6580677 12.8877657 11.4681882 10.5560502 9.07397136 7.34346444 9.07397136 5.8148954 9.07397136 4.44177406 9.75059786 3.48317992 10.9737304L3.48317992 9.38626051.192870293 9.38626051.192870293 26.7443328 3.48317992 26.7443328 3.48317992 20.3424051C4.51949791 21.6436099 5.8667113 22.2681882 7.34346444 22.2681882L7.34346444 22.2681882zM6.30714644 19.3274653C5.2449205 19.3274653 4.02724686 18.6768629 3.48317992 17.8701159L3.48317992 13.4460195C4.05315481 12.6132485 5.2449205 12.0146942 6.30714644 12.0146942 8.19842678 12.0146942 9.49382427 13.4980677 9.49382427 15.6580677 9.49382427 17.8440918 8.19842678 19.3274653 6.30714644 19.3274653L6.30714644 19.3274653zM18.5875146 21.9558991L18.5875146 13.6542123C19.1315816 12.8474653 20.5824268 12.222887 21.6705607 12.222887 22.0591799 12.222887 22.3441674 12.2489111 22.5773389 12.3009593L22.5773389 9.07397136C21.0228619 9.07397136 19.4942929 9.98481473 18.5875146 11.0778268L18.5875146 9.38626051 15.297205 9.38626051 15.297205 21.9558991 18.5875146 21.9558991zM30.4274477 22.2681882C34.5727197 22.2681882 37.0598828 19.2233689 37.0598828 15.6580677 37.0598828 12.0927665 34.5727197 9.07397136 30.4274477 9.07397136 26.3080837 9.07397136 23.8209205 12.0927665 23.8209205 15.6580677 23.8209205 19.2233689 26.3080837 22.2681882 30.4274477 22.2681882L30.4274477 22.2681882zM30.4274477 19.3274653C28.3807197 19.3274653 27.2407699 17.6358991 27.2407699 15.6580677 27.2407699 13.7062605 28.3807197 12.0146942 30.4274477 12.0146942 32.5000837 12.0146942 33.6400335 13.7062605 33.6400335 15.6580677 33.6400335 17.6358991 32.5000837 19.3274653 30.4274477 19.3274653L30.4274477 19.3274653zM57.0090042 22.2681882C61.1542762 22.2681882 63.6414393 19.2233689 63.6414393 15.6580677 63.6414393 12.0927665 61.1542762 9.07397136 57.0090042 9.07397136 52.8896402 9.07397136 50.402477 12.0927665 50.402477 15.6580677 50.402477 19.2233689 52.8896402 22.2681882 57.0090042 22.2681882L57.0090042 22.2681882zM57.0090042 19.3274653C54.9622762 19.3274653 53.8223264 17.6358991 53.8223264 15.6580677 53.8223264 13.7062605 54.9622762 12.0146942 57.0090042 12.0146942 59.0816402 12.0146942 60.22159 13.7062605 60.22159 15.6580677 60.22159 17.6358991 59.0816402 19.3274653 57.0090042 19.3274653L57.0090042 19.3274653zM69.3930042 21.9558991L69.3930042 4.59782678 66.1026946 4.59782678 66.1026946 21.9558991 69.3930042 21.9558991zM78.4607866 22.2681882C82.6060586 22.2681882 85.0932218 19.2233689 85.0932218 15.6580677 85.0932218 12.0927665 82.6060586 9.07397136 78.4607866 9.07397136 74.3414226 9.07397136 71.8542594 12.0927665 71.8542594 15.6580677 71.8542594 19.2233689 74.3414226 22.2681882 78.4607866 22.2681882L78.4607866 22.2681882zM78.4607866 19.3274653C76.4140586 19.3274653 75.2741088 17.6358991 75.2741088 15.6580677 75.2741088 13.7062605 76.4140586 12.0146942 78.4607866 12.0146942 80.5334226 12.0146942 81.6733724 13.7062605 81.6733724 15.6580677 81.6733724 17.6358991 80.5334226 19.3274653 78.4607866 19.3274653L78.4607866 19.3274653z"/>
    <path fill="#F8A467" d="M47.7396795,14.9377952 C47.7396795,30.5302048 27.1734452,29.8712892 27.1734452,29.8712892 C27.1734452,29.8712892 39.764349,30.5302048 39.764349,14.9377952 C39.764349,-0.654614458 60.3302234,0.00393975904 60.3302234,0.00393975904 C60.3302234,0.00393975904 47.7396795,-0.654614458 47.7396795,14.9377952"/>
  </g>
</svg>
