<?xml version="1.0" encoding="UTF-8" standalone="no"?>
<svg width="142px" height="50px" viewBox="0 0 142 50" version="1.1" xmlns="http://www.w3.org/2000/svg" xmlns:xlink="http://www.w3.org/1999/xlink">
    <!-- Generator: Sketch 3.7.2 (28276) - http://www.bohemiancoding.com/sketch -->
    <title>logo-black</title>
    <desc>Created with Sketch.</desc>
    <defs></defs>
    <g id="Assets" stroke="none" stroke-width="1" fill="none" fill-rule="evenodd">
        <g id="logo" transform="translate(-150.000000, -45.000000)">
            <g id="logo-black" transform="translate(150.000000, 45.000000)">
                <path d="M12.2106444,37.113647 C17.5525021,37.113647 21.4296569,33.0799121 21.4296569,26.0967796 C21.4296569,19.113647 17.5525021,15.1232856 12.2106444,15.1232856 C9.66895397,15.1232856 7.38574059,16.2509964 5.79179916,18.2895507 L5.79179916,15.6437675 L0.320702929,15.6437675 L0.320702929,44.573888 L5.79179916,44.573888 L5.79179916,33.9040085 C7.51497908,36.0726832 9.75511297,37.113647 12.2106444,37.113647 L12.2106444,37.113647 Z M10.4874644,32.2124422 C8.72120502,32.2124422 6.69646862,31.1281049 5.79179916,29.7835266 L5.79179916,22.4100326 C6.73954812,21.0220808 8.72120502,20.0244904 10.4874644,20.0244904 C13.6322678,20.0244904 15.7862427,22.4967796 15.7862427,26.0967796 C15.7862427,29.7401531 13.6322678,32.2124422 10.4874644,32.2124422 L10.4874644,32.2124422 Z M30.9071464,36.5931651 L30.9071464,22.7570205 C31.8118159,21.4124422 34.2242678,20.3714784 36.0336067,20.3714784 C36.6797992,20.3714784 37.1536736,20.4148519 37.5413891,20.5015988 L37.5413891,15.1232856 C34.9566192,15.1232856 32.4149289,16.6413579 30.9071464,18.4630446 L30.9071464,15.6437675 L25.4360502,15.6437675 L25.4360502,36.5931651 L30.9071464,36.5931651 Z M50.594477,37.113647 C57.4871967,37.113647 61.6228285,32.0389482 61.6228285,26.0967796 C61.6228285,20.1546109 57.4871967,15.1232856 50.594477,15.1232856 C43.7448368,15.1232856 39.609205,20.1546109 39.609205,26.0967796 C39.609205,32.0389482 43.7448368,37.113647 50.594477,37.113647 L50.594477,37.113647 Z M50.594477,32.2124422 C47.1911967,32.2124422 45.2956987,29.3931651 45.2956987,26.0967796 C45.2956987,22.8437675 47.1911967,20.0244904 50.594477,20.0244904 C54.0408368,20.0244904 55.9363347,22.8437675 55.9363347,26.0967796 C55.9363347,29.3931651 54.0408368,32.2124422 50.594477,32.2124422 L50.594477,32.2124422 Z" id="pro" fill="#363636"></path>
                <path d="M94.7940418,37.113647 C101.686762,37.113647 105.822393,32.0389482 105.822393,26.0967796 C105.822393,20.1546109 101.686762,15.1232856 94.7940418,15.1232856 C87.9444017,15.1232856 83.8087699,20.1546109 83.8087699,26.0967796 C83.8087699,32.0389482 87.9444017,37.113647 94.7940418,37.113647 L94.7940418,37.113647 Z M94.7940418,32.2124422 C91.3907615,32.2124422 89.4952636,29.3931651 89.4952636,26.0967796 C89.4952636,22.8437675 91.3907615,20.0244904 94.7940418,20.0244904 C98.2404017,20.0244904 100.1359,22.8437675 100.1359,26.0967796 C100.1359,29.3931651 98.2404017,32.2124422 94.7940418,32.2124422 L94.7940418,32.2124422 Z M115.386042,36.5931651 L115.386042,7.66304463 L109.914946,7.66304463 L109.914946,36.5931651 L115.386042,36.5931651 Z M130.463866,37.113647 C137.356586,37.113647 141.492218,32.0389482 141.492218,26.0967796 C141.492218,20.1546109 137.356586,15.1232856 130.463866,15.1232856 C123.614226,15.1232856 119.478594,20.1546109 119.478594,26.0967796 C119.478594,32.0389482 123.614226,37.113647 130.463866,37.113647 L130.463866,37.113647 Z M130.463866,32.2124422 C127.060586,32.2124422 125.165088,29.3931651 125.165088,26.0967796 C125.165088,22.8437675 127.060586,20.0244904 130.463866,20.0244904 C133.910226,20.0244904 135.805724,22.8437675 135.805724,26.0967796 C135.805724,29.3931651 133.910226,32.2124422 130.463866,32.2124422 L130.463866,32.2124422 Z" id="olo" fill="#363636"></path>
                <path d="M79.381095,24.8963253 C79.381095,50.8836747 45.1837519,49.7854819 45.1837519,49.7854819 C45.1837519,49.7854819 66.1197895,50.8836747 66.1197895,24.8963253 C66.1197895,-1.0910241 100.316534,0.00656626506 100.316534,0.00656626506 C100.316534,0.00656626506 79.381095,-1.0910241 79.381095,24.8963253" id="Fill-2" fill="#F8A467"></path>
            </g>
        </g>
    </g>
</svg>