<?xml version="1.0" encoding="UTF-8" standalone="no"?>
<svg width="86px" height="30px" viewBox="0 0 86 30" version="1.1" xmlns="http://www.w3.org/2000/svg" xmlns:xlink="http://www.w3.org/1999/xlink">
    <!-- Generator: Sketch 3.7.2 (28276) - http://www.bohemiancoding.com/sketch -->
    <title>logo</title>
    <desc>Created with Sketch.</desc>
    <defs></defs>
    <g id="Assets" stroke="none" stroke-width="1" fill="none" fill-rule="evenodd">
        <g id="logo" transform="translate(-179.000000, -95.000000)">
            <g transform="translate(179.000000, 95.000000)">
                <path d="M7.34346444,22.2681882 C10.5560502,22.2681882 12.8877657,19.8479473 12.8877657,15.6580677 C12.8877657,11.4681882 10.5560502,9.07397136 7.34346444,9.07397136 C5.8148954,9.07397136 4.44177406,9.75059786 3.48317992,10.9737304 L3.48317992,9.38626051 L0.192870293,9.38626051 L0.192870293,26.7443328 L3.48317992,26.7443328 L3.48317992,20.3424051 C4.51949791,21.6436099 5.8667113,22.2681882 7.34346444,22.2681882 L7.34346444,22.2681882 Z M6.30714644,19.3274653 C5.2449205,19.3274653 4.02724686,18.6768629 3.48317992,17.8701159 L3.48317992,13.4460195 C4.05315481,12.6132485 5.2449205,12.0146942 6.30714644,12.0146942 C8.19842678,12.0146942 9.49382427,13.4980677 9.49382427,15.6580677 C9.49382427,17.8440918 8.19842678,19.3274653 6.30714644,19.3274653 L6.30714644,19.3274653 Z M18.5875146,21.9558991 L18.5875146,13.6542123 C19.1315816,12.8474653 20.5824268,12.222887 21.6705607,12.222887 C22.0591799,12.222887 22.3441674,12.2489111 22.5773389,12.3009593 L22.5773389,9.07397136 C21.0228619,9.07397136 19.4942929,9.98481473 18.5875146,11.0778268 L18.5875146,9.38626051 L15.297205,9.38626051 L15.297205,21.9558991 L18.5875146,21.9558991 Z M30.4274477,22.2681882 C34.5727197,22.2681882 37.0598828,19.2233689 37.0598828,15.6580677 C37.0598828,12.0927665 34.5727197,9.07397136 30.4274477,9.07397136 C26.3080837,9.07397136 23.8209205,12.0927665 23.8209205,15.6580677 C23.8209205,19.2233689 26.3080837,22.2681882 30.4274477,22.2681882 L30.4274477,22.2681882 Z M30.4274477,19.3274653 C28.3807197,19.3274653 27.2407699,17.6358991 27.2407699,15.6580677 C27.2407699,13.7062605 28.3807197,12.0146942 30.4274477,12.0146942 C32.5000837,12.0146942 33.6400335,13.7062605 33.6400335,15.6580677 C33.6400335,17.6358991 32.5000837,19.3274653 30.4274477,19.3274653 L30.4274477,19.3274653 Z" id="pro" fill="#FEFEFE"></path>
                <path d="M57.0090042,22.2681882 C61.1542762,22.2681882 63.6414393,19.2233689 63.6414393,15.6580677 C63.6414393,12.0927665 61.1542762,9.07397136 57.0090042,9.07397136 C52.8896402,9.07397136 50.402477,12.0927665 50.402477,15.6580677 C50.402477,19.2233689 52.8896402,22.2681882 57.0090042,22.2681882 L57.0090042,22.2681882 Z M57.0090042,19.3274653 C54.9622762,19.3274653 53.8223264,17.6358991 53.8223264,15.6580677 C53.8223264,13.7062605 54.9622762,12.0146942 57.0090042,12.0146942 C59.0816402,12.0146942 60.22159,13.7062605 60.22159,15.6580677 C60.22159,17.6358991 59.0816402,19.3274653 57.0090042,19.3274653 L57.0090042,19.3274653 Z M69.3930042,21.9558991 L69.3930042,4.59782678 L66.1026946,4.59782678 L66.1026946,21.9558991 L69.3930042,21.9558991 Z M78.4607866,22.2681882 C82.6060586,22.2681882 85.0932218,19.2233689 85.0932218,15.6580677 C85.0932218,12.0927665 82.6060586,9.07397136 78.4607866,9.07397136 C74.3414226,9.07397136 71.8542594,12.0927665 71.8542594,15.6580677 C71.8542594,19.2233689 74.3414226,22.2681882 78.4607866,22.2681882 L78.4607866,22.2681882 Z M78.4607866,19.3274653 C76.4140586,19.3274653 75.2741088,17.6358991 75.2741088,15.6580677 C75.2741088,13.7062605 76.4140586,12.0146942 78.4607866,12.0146942 C80.5334226,12.0146942 81.6733724,13.7062605 81.6733724,15.6580677 C81.6733724,17.6358991 80.5334226,19.3274653 78.4607866,19.3274653 L78.4607866,19.3274653 Z" id="olo" fill="#FEFEFE"></path>
                <path d="M47.7396795,14.9377952 C47.7396795,30.5302048 27.1734452,29.8712892 27.1734452,29.8712892 C27.1734452,29.8712892 39.764349,30.5302048 39.764349,14.9377952 C39.764349,-0.654614458 60.3302234,0.00393975904 60.3302234,0.00393975904 C60.3302234,0.00393975904 47.7396795,-0.654614458 47.7396795,14.9377952" id="Fill-2" fill="#F8A467"></path>
            </g>
        </g>
    </g>
</svg>