<?xml version="1.0" encoding="utf-8"?>
<!-- Generator: Adobe Illustrator 16.2.0, SVG Export Plug-In . SVG Version: 6.00 Build 0)  -->
<!DOCTYPE svg PUBLIC "-//W3C//DTD SVG 1.1//EN" "http://www.w3.org/Graphics/SVG/1.1/DTD/svg11.dtd">
<svg version="1.1" id="Layer_1" xmlns="http://www.w3.org/2000/svg" xmlns:xlink="http://www.w3.org/1999/xlink" x="0px" y="0px"
	 width="112px" height="128.701px" viewBox="0 0 112 128.701" enable-background="new 0 0 112 128.701" xml:space="preserve">
<polygon fill="#6ED48C" points="112,96.526 56,128.701 0,96.526 0,32.175 56,0 112,32.175 "/>
<g>
	<path fill="#52985F" d="M29.616,45.635l12.782,4.299c1.052,0.461,6.051,2.29,14.914,0.092c11.196-2.778,35.437-7.588,35.681-7.639
		l-0.902-4.556c-0.01,0.002-0.076,0.015-0.162,0.033l-23.102-3.257c-2.541-0.358-6.643-0.253-9.162,0.237l-30.885,5.991
		c-4.019-0.208-7.84,2.26-9.12,6.263c-0.738,2.309-0.532,4.771,0.579,6.92c0.568,1.1,1.342,2.049,2.266,2.819
		c-1.391,1.085-2.483,2.579-3.06,4.38c-0.736,2.31-0.53,4.771,0.579,6.923c0.602,1.164,1.441,2.146,2.436,2.933
		c-1.369,1.081-2.445,2.567-3.016,4.35c-0.736,2.31-0.53,4.769,0.579,6.921c1.112,2.153,2.995,3.745,5.302,4.482l22.267,7.12
		c1.222,0.391,3.226,0.478,4.478,0.188l39.089-8.956c0,0-0.233-1.013-0.52-2.263c-0.285-1.249-1.531-2.032-2.783-1.744
		l-35.585,8.148c-1.25,0.287-3.253,0.201-4.478-0.188l-21.052-6.73c-1.127-0.357-2.047-1.139-2.588-2.188
		c-0.542-1.049-0.644-2.25-0.282-3.375c0.743-2.327,3.241-3.602,5.568-2.873c0.005-0.021,12.881,4.092,18.154,5.772
		c1.223,0.391,3.227,0.478,4.478,0.188l39.089-8.954c0,0-0.233-1.015-0.52-2.264c-0.285-1.25-1.531-2.032-2.783-1.745l-35.585,8.15
		c-1.25,0.285-3.253,0.199-4.478-0.188l-21.054-6.731c-1.127-0.358-2.047-1.14-2.588-2.188c-0.542-1.049-0.644-2.25-0.282-3.375
		c0.743-2.327,3.241-3.604,5.568-2.874c0.001-0.007,13.055,4.165,18.37,5.861c1.221,0.391,3.226,0.478,4.476,0.188l39.088-8.955
		c0,0-0.232-1.011-0.519-2.264c-0.288-1.248-1.534-2.033-2.783-1.744l-35.586,8.147c-1.25,0.29-3.253,0.203-4.478-0.188
		l-21.054-6.729c-1.126-0.36-2.047-1.139-2.588-2.19c-0.542-1.049-0.644-2.25-0.282-3.375
		C24.826,46.189,27.321,44.894,29.616,45.635z"/>
</g>
</svg>
