<?xml version="1.0" encoding="utf-8"?>
<!-- Generator: Adobe Illustrator 16.2.0, SVG Export Plug-In . SVG Version: 6.00 Build 0)  -->
<!DOCTYPE svg PUBLIC "-//W3C//DTD SVG 1.1//EN" "http://www.w3.org/Graphics/SVG/1.1/DTD/svg11.dtd">
<svg version="1.1" id="Layer_1" xmlns="http://www.w3.org/2000/svg" xmlns:xlink="http://www.w3.org/1999/xlink" x="0px" y="0px"
	 width="112px" height="128.701px" viewBox="0 0 112 128.701" enable-background="new 0 0 112 128.701" xml:space="preserve">
<polygon fill="#E55B68" points="112,96.526 56,128.701 0,96.526 0,32.175 56,0 112,32.175 "/>
<g>
	<g>
		<circle fill="#9F414B" cx="55.963" cy="39.042" r="16.437"/>
		<path fill="#9F414B" d="M25.526,61.382v3.411c0.024,0,0.057,0,0.082,0c2.339,0,4.548,0.91,6.204,2.567
			c1.657,1.656,2.566,3.855,2.566,6.203c0,2.34-0.909,4.548-2.566,6.205c-1.656,1.656-3.857,2.566-6.204,2.566
			c-0.024,0-0.057,0-0.082,0v11.758c0,1.146,0.934,2.031,2.022,2.031c0.138,0,0.276-0.018,0.415-0.042
			c3.077-0.624,7.658-1.03,12.782-1.03c6.74,0,12.555,0.69,15.218,1.689c2.656-0.999,8.47-1.689,15.218-1.689
			c5.125,0,9.703,0.397,12.783,1.03c0.137,0.024,0.275,0.042,0.414,0.042c1.096,0,2.021-0.885,2.021-2.031V82.335
			c-2.34,0-4.547-0.91-6.205-2.566c-1.656-1.657-2.566-3.857-2.566-6.205c0-2.339,0.91-4.547,2.566-6.203
			c1.658-1.657,3.857-2.567,6.205-2.567v-3.411c0-0.885-0.576-1.673-1.422-1.932c-2.42-0.764-7.689-2.161-13.797-2.161
			c-8.404,0-15.218,2.647-15.218,2.647s-6.814-2.647-15.218-2.647c-6.108,0-11.378,1.397-13.798,2.161
			C26.103,59.717,25.526,60.498,25.526,61.382z"/>
		<path fill="#9F414B" d="M24.308,67.862c-0.423,0.099-0.837,0.236-1.218,0.424c-1.974,0.941-3.33,2.947-3.33,5.277
			c0,2.331,1.364,4.338,3.33,5.279c0.381,0.187,0.795,0.324,1.218,0.422c0.39,0.089,0.804,0.139,1.218,0.146
			c0.024,0,0.057,0,0.082,0c3.232,0,5.847-2.615,5.847-5.848s-2.615-5.846-5.847-5.846c-0.024,0-0.057,0-0.082,0
			C25.112,67.725,24.706,67.774,24.308,67.862z"/>
		<path fill="#9F414B" d="M80.545,73.563c0,3.232,2.615,5.848,5.848,5.848c0.414,0,0.828-0.041,1.217-0.131
			c0.424-0.089,0.838-0.227,1.219-0.404c2.014-0.927,3.412-2.957,3.412-5.32s-1.398-4.394-3.412-5.318
			c-0.381-0.18-0.795-0.317-1.219-0.407c-0.389-0.081-0.803-0.13-1.217-0.13C83.16,67.718,80.545,70.34,80.545,73.563z"/>
	</g>
</g>
</svg>
