<?xml version="1.0" encoding="UTF-8" standalone="no"?>
<svg width="20px" height="20px" viewBox="0 0 20 20" version="1.1" xmlns="http://www.w3.org/2000/svg" xmlns:xlink="http://www.w3.org/1999/xlink">
    <!-- Generator: Sketch 3.6.1 (26313) - http://www.bohemiancoding.com/sketch -->
    <title>iconExternal20</title>
    <desc>Created with Sketch.</desc>
    <defs></defs>
    <g id="Assets" stroke="none" stroke-width="1" fill="none" fill-rule="evenodd">
        <g id="iconExternal20" fill="#D5D8DA">
            <g id="icon-external">
                <path d="M1.78086881,10.624695 L5.78086881,5.62469505 C6.12587836,5.19343311 6.05595698,4.56414074 5.62469505,4.21913119 C5.19343311,3.87412164 4.56414074,3.94404302 4.21913119,4.37530495 L0.219131191,9.37530495 C-0.125878358,9.80656689 -0.0559569826,10.4358593 0.375304952,10.7808688 C0.806566888,11.1258784 1.43585926,11.055957 1.78086881,10.624695 L1.78086881,10.624695 Z" id="Line"></path>
                <path d="M0.219131191,10.624695 L4.21913119,15.624695 C4.56414074,16.055957 5.19343311,16.1258784 5.62469505,15.7808688 C6.05595698,15.4358593 6.12587836,14.8065669 5.78086881,14.375305 L1.78086881,9.37530495 C1.43585926,8.94404302 0.806566888,8.87412164 0.375304952,9.21913119 C-0.0559569826,9.56414074 -0.125878358,10.1934331 0.219131191,10.624695 L0.219131191,10.624695 Z" id="Line"></path>
                <path d="M19.7808688,9.37530495 L15.7808688,4.37530495 C15.4358593,3.94404302 14.8065669,3.87412164 14.375305,4.21913119 C13.944043,4.56414074 13.8741216,5.19343311 14.2191312,5.62469505 L18.2191312,10.624695 C18.5641407,11.055957 19.1934331,11.1258784 19.624695,10.7808688 C20.055957,10.4358593 20.1258784,9.80656689 19.7808688,9.37530495 L19.7808688,9.37530495 Z" id="Line"></path>
                <path d="M18.2191312,9.37530495 L14.2191312,14.375305 C13.8741216,14.8065669 13.944043,15.4358593 14.375305,15.7808688 C14.8065669,16.1258784 15.4358593,16.055957 15.7808688,15.624695 L19.7808688,10.624695 C20.1258784,10.1934331 20.055957,9.56414074 19.624695,9.21913119 C19.1934331,8.87412164 18.5641407,8.94404302 18.2191312,9.37530495 L18.2191312,9.37530495 Z" id="Line"></path>
                <path d="M11.0384761,2.72527887 L7.03847605,16.7252789 C6.88675176,17.2563139 7.19424386,17.8097997 7.72527887,17.9615239 C8.25631388,18.1132482 8.80979966,17.8057561 8.96152395,17.2747211 L12.9615239,3.27472113 C13.1132482,2.74368612 12.8057561,2.19020034 12.2747211,2.03847605 C11.7436861,1.88675176 11.1902003,2.19424386 11.0384761,2.72527887 L11.0384761,2.72527887 Z" id="Line"></path>
            </g>
        </g>
    </g>
</svg>