<?xml version="1.0" encoding="UTF-8" standalone="no"?>
<svg width="16px" height="16px" viewBox="0 0 16 16" version="1.1" xmlns="http://www.w3.org/2000/svg" xmlns:xlink="http://www.w3.org/1999/xlink">
    <!-- Generator: Sketch 3.8.2 (29753) - http://www.bohemiancoding.com/sketch -->
    <title>iconNotifFollow16</title>
    <desc>Created with Sketch.</desc>
    <defs></defs>
    <g id="Assets" stroke="none" stroke-width="1" fill="none" fill-rule="evenodd">
        <g id="iconNotifFollow16" fill="#64C0CD">
            <g id="icon-user">
                <path d="M4,5.091808 C4,2.83196484 5.79535615,1 8,1 C10.209139,1 12,2.83213234 12,5.091808 L12,5.908192 C12,8.16803516 10.2046438,10 8,10 C5.790861,10 4,8.16786766 4,5.908192 L4,5.091808 Z M6,5.14364191 L6,5.85635809 C6,7.0402424 6.89555165,8 8,8 C9.10228326,8 10,7.0386955 10,5.85635809 L10,5.14364191 C10,3.9597576 9.10444835,3 8,3 C6.89771674,3 6,3.9613045 6,5.14364191 Z" id="Rectangle-146"></path>
                <path d="M1.56793447,14.8230738 C1.63321325,14.7780303 1.78104256,14.6854301 2.00444281,14.5608113 C2.389256,14.3461519 2.83629379,14.1299212 3.33842786,13.927409 C4.77052686,13.3498392 6.3426631,13.0025604 8.00154417,12.9999988 C9.70782345,13.0025662 11.2888491,13.3495851 12.7011713,13.9258779 C13.1947486,14.1272804 13.6301434,14.3420834 14.0016695,14.55506 C14.216279,14.6780845 14.3563806,14.7689028 14.4163676,14.812018 C14.8648328,15.1343493 15.4896868,15.0320975 15.812018,14.5836324 C16.1343493,14.1351672 16.0320975,13.5103132 15.5836324,13.187982 C15.175444,12.8945994 14.4539144,12.480984 13.4567796,12.0741069 C11.8173988,11.4051636 9.98504294,11.0029804 8.00150198,11.0000011 C6.06537608,11.0029862 4.24586342,11.4049095 2.59036803,12.0725758 C1.58697684,12.4772464 0.851453774,12.8875414 0.432065533,13.1769262 C-0.0225055619,13.4905878 -0.136735321,14.1133634 0.176926224,14.5679345 C0.490587769,15.0225056 1.11336337,15.1367353 1.56793447,14.8230738 L1.56793447,14.8230738 Z" id="Path-58"></path>
            </g>
        </g>
    </g>
</svg>