<?xml version="1.0" encoding="UTF-8" standalone="no"?>
<svg width="20px" height="20px" viewBox="0 0 20 20" version="1.1" xmlns="http://www.w3.org/2000/svg" xmlns:xlink="http://www.w3.org/1999/xlink">
    <!-- Generator: Sketch 3.6.1 (26313) - http://www.bohemiancoding.com/sketch -->
    <title>iconText20</title>
    <desc>Created with Sketch.</desc>
    <defs></defs>
    <g id="Assets" stroke="none" stroke-width="1" fill="none" fill-rule="evenodd">
        <g id="iconText20" fill="#D5D8DA">
            <g id="icon-read">
                <path d="M2,2.99406028 L2,2.99406028 L2,15.0059397 C2,15.0281892 2.04375475,15.0733921 2.07528613,15.074545 L2.00220623,17.0732094 L1.97511372,15.0733929 C1.98473354,15.0732695 1.98473354,15.0732695 2.00683229,15.0730874 C2.42615759,15.0701714 3.02768348,15.087184 3.75207205,15.1414051 C4.90147288,15.2274388 6.04737278,15.3870241 7.13621411,15.6420523 C8.76442409,16.0234112 10.1472336,16.5880472 11.2212242,17.4161403 L8.82241939,17.3834283 C9.87747418,16.6148809 11.1920921,16.0725881 12.7126907,15.6958457 C13.8367481,15.41735 15.0197017,15.2430586 16.206154,15.1490644 C16.9535915,15.0898502 17.5740952,15.0712425 18.0065,15.0743826 C18.0290064,15.0745761 18.0290064,15.0745761 18.0389396,15.0747092 L18.0106393,17.074509 L17.9114839,15.0769684 C17.9581199,15.0746535 18,15.0312607 18,15.0059397 L18,2.99406028 C18,3.02769376 18.0484113,3.07433772 18.0811662,3.0731135 L17.9782453,3.07430981 C17.981821,3.07435282 17.981821,3.07435282 17.9732697,3.07427736 C17.6502513,3.07193788 17.1444296,3.08699753 16.52288,3.13591085 C15.5428039,3.21303868 14.5730987,3.35497883 13.6866102,3.57318991 C12.6194824,3.83586573 11.7579518,4.19091544 11.1828426,4.61272542 L9.97433426,5.49909778 L8.78428496,4.58809223 C8.23108404,4.16460632 7.34823984,3.80381437 6.23400249,3.5412124 C4.72055178,3.18452436 3.13747384,3.06527237 2.03050007,3.07299046 C2.02187677,3.07306364 2.02187677,3.07306364 2.02523698,3.0730249 L1.90076044,3.07084066 C1.95346645,3.07340813 2,3.02858535 2,2.99406028 L2,2.99406028 Z M0,2.99406028 C0,1.8927712 0.90234939,1.01983345 1.99807117,1.0732094 C1.99807117,1.0732094 7.38739395,1 10,3 C12.7268639,1 18.0064677,1.07450895 18.0064677,1.07450895 C19.1074652,1.03335879 20,1.89451376 20,2.99406028 L20,15.0059397 C20,16.1072288 19.1121081,17.0198334 18.0106393,17.074509 C18.0106393,17.074509 12.7455813,17 10,19 C7.4061114,17 2.00220623,17.0732094 2.00220623,17.0732094 C0.896418264,17.032777 0,16.1054862 0,15.0059397 L0,2.99406028 L0,2.99406028 Z" id="Rectangle-107"></path>
                <rect id="Rectangle-111" x="9" y="4" width="2" height="13"></rect>
            </g>
        </g>
    </g>
</svg>